<svg width="24" height="24" viewBox="0 0 24 24" fill="none" xmlns="http://www.w3.org/2000/svg">
<path d="M7.25 13.5C8.75 13.5 10 12.2812 10 10.75C10 9.25 8.75 8 7.25 8C5.71875 8 4.5 9.25 4.5 10.75C4.5 12.2812 5.71875 13.5 7.25 13.5ZM7.25 9.5C7.9375 9.5 8.5 10.0625 8.5 10.75C8.5 11.4688 7.9375 12 7.25 12C6.53125 12 6 11.4688 6 10.75C6 10.0625 6.53125 9.5 7.25 9.5ZM18.5 8H11.5C11.2188 8 11 8.25 11 8.5V14.5H3.5V6.5C3.5 6.25 3.25 6 3 6H2.5C2.21875 6 2 6.25 2 6.5V17.5C2 17.7812 2.21875 18 2.5 18H3C3.25 18 3.5 17.7812 3.5 17.5V16H20.5V17.5C20.5 17.7812 20.7188 18 21 18H21.5C21.75 18 22 17.7812 22 17.5V11.5C22 9.59375 20.4062 8 18.5 8ZM20.5 14.5H12.5V9.5H18.5C19.5938 9.5 20.5 10.4062 20.5 11.5V14.5Z" fill="#929292"/>
</svg>
