<svg width="21" height="24" viewBox="0 0 21 24" fill="none" xmlns="http://www.w3.org/2000/svg">
<path id="Vector" d="M0 3.69231C0 1.66154 1.66154 0 3.69231 0H16.6154C18.6462 0 20.3077 1.66154 20.3077 3.69231V18.4615C20.3077 20.3077 18.4615 20.3077 18.4615 20.3077V22.1538C18.4615 23.1692 17.6308 24 16.6154 24C15.6 24 14.7692 23.1692 14.7692 22.1538V20.3077H5.53846V22.1538C5.53846 23.1692 4.70769 24 3.69231 24C2.67692 24 1.84615 23.1692 1.84615 22.1538V20.3077C0 20.3077 0 18.4615 0 18.4615V3.69231ZM2.76923 5.53846C2.25231 5.53846 1.84615 5.94462 1.84615 6.46154V12C1.84615 12.5169 2.25231 12.9231 2.76923 12.9231H17.5385C18.0554 12.9231 18.4615 12.5169 18.4615 12V6.46154C18.4615 5.94462 18.0554 5.53846 17.5385 5.53846H2.76923ZM3.69231 14.7692C2.67692 14.7692 1.84615 15.6 1.84615 16.6154C1.84615 17.6308 2.67692 18.4615 3.69231 18.4615C4.70769 18.4615 5.53846 17.6308 5.53846 16.6154C5.53846 15.6 4.70769 14.7692 3.69231 14.7692ZM16.6154 14.7692C15.6 14.7692 14.7692 15.6 14.7692 16.6154C14.7692 17.6308 15.6 18.4615 16.6154 18.4615C17.6308 18.4615 18.4615 17.6308 18.4615 16.6154C18.4615 15.6 17.6308 14.7692 16.6154 14.7692ZM3.69231 2.76923C3.69231 3.28615 4.09846 3.69231 4.61539 3.69231H15.6923C16.2092 3.69231 16.6154 3.28615 16.6154 2.76923C16.6154 2.25231 16.2092 1.84615 15.6923 1.84615H4.61539C4.09846 1.84615 3.69231 2.25231 3.69231 2.76923Z" fill="#262626"/>
</svg>
