<svg width="243" height="185" viewBox="0 0 243 185" fill="none" xmlns="http://www.w3.org/2000/svg">
<path d="M44.9763 80.7402L1.05762 105.54V107.606L41.316 130.335L85.2347 105.54V103.475L44.9763 80.7402Z" fill="#3566B1"/>
<path opacity="0.15" d="M1.05762 105.539L41.316 128.268V130.334L1.05762 107.604V105.539Z" fill="black"/>
<path opacity="0.1" d="M41.3154 128.269L85.2342 103.475V105.54L41.3154 130.335V128.269Z" fill="black"/>
<path d="M81.3275 96.0168L79.5918 99.3613L79.873 99.5009L81.6087 96.1564L81.3275 96.0168Z" fill="#455A64"/>
<path d="M78.1187 95.7556L77.8506 95.918L79.5431 98.5918L79.8112 98.4295L78.1187 95.7556Z" fill="#455A64"/>
<path d="M79.9973 95.4434V103.506C79.9962 103.529 79.9888 103.55 79.9759 103.569C79.9629 103.587 79.945 103.602 79.9241 103.611C79.867 103.641 79.8031 103.657 79.7383 103.657C79.6735 103.657 79.6096 103.641 79.5525 103.611C79.5305 103.603 79.5114 103.588 79.4975 103.57C79.4835 103.551 79.4753 103.529 79.4736 103.506V95.4434H79.9973Z" fill="#455A64"/>
<path d="M86.2319 92.9385C86.2319 93.6792 86.0073 94.4032 85.5865 95.0191C85.1657 95.635 84.5677 96.115 83.868 96.3985C83.1682 96.6819 82.3983 96.7561 81.6555 96.6116C80.9127 96.4671 80.2304 96.1104 79.6948 95.5866C79.1593 95.0629 78.7946 94.3956 78.6468 93.6691C78.4991 92.9426 78.5749 92.1896 78.8647 91.5053C79.1546 90.8209 79.6454 90.236 80.2751 89.8245C80.9048 89.413 81.6452 89.1934 82.4025 89.1934C83.4177 89.1948 84.3908 89.5899 85.1086 90.2919C85.8264 90.9939 86.2304 91.9456 86.2319 92.9385Z" fill="#3566B1"/>
<path opacity="0.2" d="M83.6017 91.9796C84.0973 90.4595 84.621 89.8647 84.2888 89.6775C83.6546 89.3255 82.931 89.1579 82.2028 89.1944C81.4746 89.2308 80.7722 89.4699 80.1782 89.8833C79.5842 90.2968 79.1232 90.8676 78.8495 91.5285C78.5757 92.1894 78.5006 92.9131 78.6329 93.6143C78.7653 94.3155 79.0996 94.9653 79.5965 95.4871C80.0935 96.0089 80.7324 96.3811 81.4382 96.5599C82.144 96.7388 82.8874 96.7168 83.5809 96.4967C84.2744 96.2765 84.8892 95.8673 85.3531 95.3171C84.1987 95.6421 82.9598 93.9513 83.6017 91.9796Z" fill="black"/>
<path d="M79.0632 93.9959C79.0632 94.5165 78.9054 95.0255 78.6096 95.4584C78.3138 95.8914 77.8934 96.2288 77.4016 96.4281C76.9097 96.6273 76.3685 96.6794 75.8463 96.5779C75.3242 96.4763 74.8445 96.2256 74.4681 95.8574C74.0916 95.4892 73.8353 95.0201 73.7314 94.5095C73.6275 93.9988 73.6809 93.4695 73.8846 92.9884C74.0883 92.5074 74.4333 92.0962 74.876 91.8069C75.3187 91.5177 75.8391 91.3633 76.3715 91.3633C77.0854 91.3633 77.77 91.6406 78.2748 92.1344C78.7796 92.6281 79.0632 93.2977 79.0632 93.9959Z" fill="#3566B1"/>
<path opacity="0.2" d="M76.3714 91.3633C75.8066 91.3632 75.2564 91.5387 74.8003 91.8645C74.7271 93.4671 76.1236 95.0368 75.7294 95.5655C75.3352 96.0942 74.3836 95.7693 74.04 95.3177C74.2772 95.7172 74.6176 96.0486 75.0272 96.2787C75.4368 96.5087 75.901 96.6294 76.3733 96.6284C76.8457 96.6275 77.3094 96.5051 77.718 96.2734C78.1266 96.0417 78.4657 95.7089 78.7012 95.3085C78.9367 94.9081 79.0604 94.4541 79.0597 93.9922C79.059 93.5302 78.9341 93.0766 78.6974 92.6768C78.4608 92.2771 78.1208 91.9452 77.7115 91.7147C77.3022 91.4841 76.8381 91.3629 76.3658 91.3633H76.3714Z" fill="black"/>
<path d="M79.7385 95.9902C82.466 95.9902 84.6772 93.8277 84.6772 91.1602C84.6772 88.4926 82.466 86.3301 79.7385 86.3301C77.0109 86.3301 74.7998 88.4926 74.7998 91.1602C74.7998 93.8277 77.0109 95.9902 79.7385 95.9902Z" fill="#3566B1"/>
<path opacity="0.1" d="M84.5423 92.2607C84.3558 93.0428 83.9729 93.767 83.4282 94.3679C82.8835 94.9688 82.1943 95.4274 81.4228 95.7023C80.6513 95.9771 79.8219 96.0594 79.0096 95.9419C78.1974 95.8243 77.4279 95.5106 76.7709 95.029C76.1138 94.5474 75.5899 93.9132 75.2466 93.1838C74.9032 92.4543 74.7512 91.6527 74.8043 90.8513C74.8574 90.05 75.114 89.2742 75.5508 88.5943C75.9876 87.9143 76.5909 87.3516 77.306 86.957C76.8887 87.1977 76.5093 87.4964 76.1797 87.8437C75.9342 88.8762 76.0433 89.959 76.4899 90.9248C76.9366 91.8907 77.6961 92.6857 78.651 93.1871C79.606 93.6886 80.7032 93.8685 81.7731 93.699C82.843 93.5296 83.8261 93.0203 84.5704 92.2497L84.5423 92.2607Z" fill="black"/>
<path d="M8.1546 98.0754L6.41895 101.42L6.70015 101.56L8.43581 98.215L8.1546 98.0754Z" fill="#455A64"/>
<path d="M4.93317 97.8084L4.66504 97.9707L6.35755 100.645L6.62568 100.482L4.93317 97.8084Z" fill="#455A64"/>
<path d="M6.81864 97.498V105.561C6.81639 105.584 6.80787 105.606 6.79399 105.624C6.7801 105.642 6.76138 105.657 6.7398 105.666C6.68183 105.693 6.61831 105.707 6.55396 105.707C6.48961 105.707 6.4261 105.693 6.36813 105.666C6.34724 105.657 6.32933 105.642 6.31641 105.623C6.30349 105.605 6.29605 105.583 6.29492 105.561V97.498H6.81864Z" fill="#455A64"/>
<path d="M13.0531 94.9873C13.0531 95.728 12.8286 96.4521 12.4078 97.0679C11.987 97.6838 11.389 98.1638 10.6892 98.4473C9.98953 98.7308 9.21959 98.8049 8.47678 98.6604C7.73397 98.5159 7.05165 98.1592 6.51611 97.6355C5.98057 97.1117 5.61587 96.4444 5.46811 95.7179C5.32036 94.9914 5.39619 94.2384 5.68602 93.5541C5.97585 92.8698 6.46666 92.2849 7.09639 91.8734C7.72612 91.4618 8.46647 91.2422 9.22384 91.2422C10.2394 91.2422 11.2134 91.6368 11.9316 92.3391C12.6497 93.0414 13.0531 93.994 13.0531 94.9873Z" fill="#3566B1"/>
<path opacity="0.2" d="M10.428 94.029C10.9236 92.5089 11.4473 91.9141 11.1151 91.7324C10.5413 91.4095 9.89054 91.2404 9.22856 91.2422C8.58334 91.2419 7.94851 91.4011 7.38301 91.7049C6.8175 92.0087 6.33966 92.4474 5.99386 92.9801C5.64806 93.5129 5.44551 94.1225 5.40501 94.7522C5.36452 95.382 5.48739 96.0116 5.76222 96.5825C6.03706 97.1535 6.45494 97.6472 6.97707 98.0179C7.4992 98.3887 8.10864 98.6243 8.74882 98.7031C9.38899 98.7819 10.0391 98.7012 10.6389 98.4685C11.2386 98.2357 11.7685 97.8586 12.1794 97.372C11.0419 97.697 9.78043 96.0007 10.428 94.029Z" fill="black"/>
<path d="M5.88355 96.0506C5.88355 96.5712 5.72568 97.0802 5.4299 97.5131C5.13413 97.9461 4.71373 98.2835 4.22187 98.4827C3.73002 98.682 3.18879 98.7341 2.66664 98.6325C2.14448 98.531 1.66486 98.2802 1.2884 97.9121C0.911953 97.5439 0.655585 97.0748 0.551723 96.5641C0.44786 96.0535 0.501167 95.5241 0.704901 95.0431C0.908635 94.5621 1.25365 94.1509 1.69631 93.8616C2.13897 93.5724 2.65939 93.418 3.19178 93.418C3.54547 93.4172 3.89584 93.4848 4.22275 93.6169C4.54967 93.7489 4.8467 93.9428 5.0968 94.1874C5.34691 94.432 5.54515 94.7225 5.68016 95.0422C5.81518 95.362 5.88429 95.7046 5.88355 96.0506Z" fill="#3566B1"/>
<path opacity="0.2" d="M3.19172 93.418C2.62749 93.4159 2.07723 93.5895 1.62058 93.9137C1.54737 95.5218 2.93831 97.0915 2.54975 97.6147C2.16119 98.1379 1.19823 97.8185 0.860352 97.3724C1.0975 97.7718 1.43795 98.1033 1.84752 98.3334C2.25708 98.5634 2.72133 98.6841 3.19365 98.6831C3.66597 98.6822 4.12973 98.5598 4.53834 98.3281C4.94696 98.0964 5.28604 97.7636 5.52154 97.3632C5.75705 96.9628 5.88067 96.5088 5.88001 96.0469C5.87934 95.5849 5.75441 95.1313 5.51776 94.7315C5.28111 94.3318 4.94107 93.9999 4.53179 93.7694C4.12252 93.5388 3.65841 93.4176 3.18609 93.418H3.19172Z" fill="black"/>
<path d="M6.55489 98.0391C9.28244 98.0391 11.4936 95.8766 11.4936 93.209C11.4936 90.5414 9.28244 88.3789 6.55489 88.3789C3.82733 88.3789 1.61621 90.5414 1.61621 93.209C1.61621 95.8766 3.82733 98.0391 6.55489 98.0391Z" fill="#3566B1"/>
<path opacity="0.1" d="M11.3566 94.3151C11.1681 95.0947 10.7839 95.8162 10.2389 96.4143C9.6939 97.0124 9.00517 97.4684 8.23489 97.741C7.4646 98.0137 6.63702 98.0944 5.82684 97.976C5.01667 97.8576 4.2494 97.5437 3.5943 97.0626C2.9392 96.5816 2.4169 95.9486 2.07453 95.2208C1.73217 94.4929 1.58053 93.6932 1.63329 92.8937C1.68606 92.0942 1.94157 91.3201 2.37676 90.6414C2.81195 89.9626 3.41313 89.4005 4.12602 89.0059C3.7 89.2462 3.31126 89.5447 2.97159 89.8926C2.72819 90.9239 2.83832 92.0049 3.28501 92.9689C3.7317 93.933 4.49015 94.7267 5.44351 95.2276C6.39686 95.7286 7.49219 95.909 8.56073 95.7411C9.62926 95.5732 10.6117 95.0663 11.3566 94.2986V94.3151Z" fill="black"/>
<path d="M54.9434 114.373L61.0759 110.914L66.5777 114.02L60.4508 117.473L54.9434 114.373Z" fill="#F0F0F0"/>
<path d="M12.0437 105.54L12.0381 86.9414L41.321 103.469V122.074L12.0437 105.54Z" fill="#F0F0F0"/>
<path d="M12.0381 94.3215L41.321 110.86V103.469L12.0381 86.9414V94.3215Z" fill="#E0E0E0"/>
<path d="M74.2543 103.47V85.3886L63.2732 82.8055V80.7402L41.3223 103.47V122.074L74.2543 103.47Z" fill="#FAFAFA"/>
<path d="M63.2715 80.7402V82.8055L76.0828 85.9063V83.841L63.2715 80.7402Z" fill="#263238"/>
<path d="M46.812 67.3058L76.0837 83.8393L63.2724 80.7386L33.9951 64.2051L46.812 67.3058Z" fill="#37474F"/>
<path d="M39.4855 106.58L63.2778 80.7391V78.6738L37.6553 107.605L39.4855 106.58Z" fill="#37474F"/>
<path d="M34.0014 62.1406L63.2787 78.6741L37.7012 107.633L8.37891 91.0715L34.0014 62.1406Z" fill="#455A64"/>
<path d="M24.8154 88.9297L28.5039 91.0115V96.2381L24.8154 94.1728V88.9297Z" fill="#263238"/>
<path d="M28.5049 91.0115L32.1878 88.9297V92.1075L28.5049 96.2381V91.0115Z" fill="#37474F"/>
<path d="M28.505 85.3867L24.4336 87.6833V88.7243L28.505 91.0099L32.5709 88.7243V87.6833L28.505 85.3867Z" fill="#F5F5F5"/>
<path d="M24.4336 88.7245L28.505 91.0101V89.9692L24.4336 87.6836V88.7245Z" fill="#E0E0E0"/>
<path d="M32.5707 88.7245L28.5049 91.0101V89.9692L32.5707 87.6836V88.7245Z" fill="#EBEBEB"/>
<path d="M25.8018 87.6838L28.5048 86.1582L31.2078 87.6838L28.5048 89.2038L25.8018 87.6838Z" fill="#3566B1"/>
<path d="M28.5048 86.1582V89.2038L25.8018 87.6838L28.5048 86.1582Z" fill="#37474F"/>
<path d="M28.5049 86.1582L31.2079 87.6838L28.5049 89.2038V86.1582Z" fill="#263238"/>
<path d="M43.6924 108.332L51.931 103.684V109.885L43.6924 114.533V108.332Z" fill="#455A64"/>
<path d="M51.565 109.675V103.893L43.6924 108.332V114.12L51.565 109.675Z" fill="#E0E0E0"/>
<path d="M51.931 109.885L51.565 109.676L43.6924 114.12V114.533L51.931 109.885Z" fill="#37474F"/>
<path d="M43.6924 111.432L51.931 106.784V106.365L43.6924 111.014V111.432Z" fill="#455A64"/>
<path d="M63.8242 96.9589L72.0572 92.3105V98.512L63.8242 103.16V96.9589Z" fill="#455A64"/>
<path d="M71.6912 98.3024V92.5195L63.8242 96.9586V102.747L71.6912 98.3024Z" fill="#E0E0E0"/>
<path d="M72.0572 98.512L71.6912 98.3027L63.8242 102.747V103.16L72.0572 98.512Z" fill="#37474F"/>
<path d="M63.8242 100.059L72.0572 95.4108V94.9922L63.8242 99.646V100.059Z" fill="#455A64"/>
<path d="M54.9434 114.374V101.976L61.0759 98.5176V110.915L54.9434 114.374Z" fill="#37474F"/>
<path d="M60.8619 110.755V98.6387L54.9434 101.976V114.093L60.8619 110.755Z" fill="#455A64"/>
<path d="M61.0763 98.5176L60.8623 98.6387V110.755L61.0763 110.915V98.5176Z" fill="#263238"/>
<path d="M34.6373 105.903L30.335 103.475V109.671L34.6373 112.099V105.903Z" fill="#455A64"/>
<path d="M30.7012 109.461V103.678L34.6375 105.903V111.686L30.7012 109.461Z" fill="#FAFAFA"/>
<path d="M30.335 109.67L30.701 109.461L34.6373 111.686V112.099L30.335 109.67Z" fill="#37474F"/>
<path d="M34.6373 108.981L30.335 106.569V106.15L34.6373 108.563V108.981Z" fill="#455A64"/>
<path d="M30.7012 103.678L34.6375 105.903V107.098L30.7012 104.889V103.678Z" fill="#F5F5F5"/>
<path d="M21.8267 98.6651L17.5244 96.2363V102.438L21.8267 104.867V98.6651Z" fill="#455A64"/>
<path d="M17.8955 102.23V96.4473L21.8262 98.6668V104.45L17.8955 102.23Z" fill="#FAFAFA"/>
<path d="M17.5244 102.44L17.8961 102.23L21.8267 104.45V104.869L17.5244 102.44Z" fill="#37474F"/>
<path d="M21.8267 101.745L17.5244 99.3326V98.9141L21.8267 101.326V101.745Z" fill="#455A64"/>
<path d="M17.8955 96.4473L21.8262 98.6668V99.8123L17.8955 97.6093V96.4473Z" fill="#F5F5F5"/>
<path d="M197.309 78.9336L153.391 103.734V105.799L197.309 130.599L241.234 105.799V103.734L197.309 78.9336Z" fill="#3566B1"/>
<path opacity="0.15" d="M153.391 103.734L197.315 128.535L197.309 130.6L153.391 105.8V103.734Z" fill="black"/>
<path opacity="0.1" d="M197.313 128.535L241.232 103.734V105.8L197.308 130.6L197.313 128.535Z" fill="black"/>
<path d="M237.447 96.345L235.711 99.6895L235.992 99.829L237.728 96.4846L237.447 96.345Z" fill="#455A64"/>
<path d="M234.679 95.1412L234.411 95.3047L236.115 97.9778L236.383 97.8143L234.679 95.1412Z" fill="#455A64"/>
<path d="M236.125 95.7754V103.838C236.124 103.861 236.117 103.882 236.104 103.901C236.091 103.919 236.073 103.934 236.052 103.943C235.995 103.973 235.931 103.989 235.866 103.989C235.801 103.989 235.738 103.973 235.68 103.943C235.659 103.934 235.64 103.92 235.626 103.901C235.612 103.883 235.604 103.861 235.602 103.838V95.7754H236.125Z" fill="#455A64"/>
<path d="M242.359 93.2685C242.359 94.0092 242.134 94.7333 241.713 95.3492C241.293 95.9651 240.695 96.4451 239.995 96.7285C239.295 97.012 238.525 97.0862 237.782 96.9417C237.04 96.7972 236.357 96.4405 235.822 95.9167C235.286 95.393 234.922 94.7256 234.774 93.9992C234.626 93.2727 234.702 92.5197 234.992 91.8353C235.282 91.151 235.772 90.5661 236.402 90.1546C237.032 89.7431 237.772 89.5234 238.53 89.5234C239.545 89.5234 240.519 89.918 241.237 90.6203C241.955 91.3227 242.359 92.2753 242.359 93.2685Z" fill="#3566B1"/>
<path opacity="0.2" d="M239.73 92.3115C240.225 90.7914 240.755 90.1966 240.417 90.0093C239.782 89.6581 239.058 89.4913 238.33 89.5286C237.602 89.5658 236.9 89.8055 236.307 90.2196C235.713 90.6337 235.253 91.2048 234.98 91.866C234.707 92.5271 234.632 93.2507 234.765 93.9518C234.898 94.6528 235.233 95.3022 235.731 95.8235C236.228 96.3448 236.867 96.7165 237.573 96.8947C238.279 97.073 239.022 97.0504 239.716 96.8298C240.409 96.6091 241.023 96.1994 241.487 95.649C240.349 95.9739 239.093 94.2666 239.73 92.3115Z" fill="black"/>
<path d="M235.19 94.3259C235.19 94.8466 235.032 95.3556 234.737 95.7885C234.441 96.2214 234.02 96.5589 233.529 96.7581C233.037 96.9574 232.495 97.0095 231.973 96.9079C231.451 96.8064 230.972 96.5556 230.595 96.1875C230.219 95.8193 229.962 95.3502 229.858 94.8395C229.754 94.3289 229.808 93.7995 230.012 93.3185C230.215 92.8375 230.56 92.4263 231.003 92.137C231.446 91.8478 231.966 91.6934 232.498 91.6934C233.212 91.6934 233.897 91.9707 234.402 92.4644C234.907 92.9581 235.19 93.6277 235.19 94.3259Z" fill="#3566B1"/>
<path opacity="0.2" d="M232.498 91.6934C231.933 91.694 231.383 91.8695 230.926 92.1945C230.853 93.7972 232.25 95.3669 231.861 95.8956C231.473 96.4243 230.51 96.0993 230.172 95.6477C230.409 96.0472 230.749 96.3787 231.159 96.6087C231.569 96.8388 232.033 96.9594 232.505 96.9585C232.977 96.9576 233.441 96.8351 233.85 96.6034C234.258 96.3717 234.598 96.039 234.833 95.6386C235.069 95.2382 235.192 94.7842 235.192 94.3222C235.191 93.8603 235.066 93.4067 234.829 93.0069C234.593 92.6071 234.253 92.2753 233.843 92.0447C233.434 91.8142 232.97 91.693 232.498 91.6934Z" fill="black"/>
<path d="M235.866 96.3203C238.594 96.3203 240.805 94.1578 240.805 91.4902C240.805 88.8227 238.594 86.6602 235.866 86.6602C233.139 86.6602 230.928 88.8227 230.928 91.4902C230.928 94.1578 233.139 96.3203 235.866 96.3203Z" fill="#3566B1"/>
<path opacity="0.1" d="M240.67 92.6148C240.479 93.3939 240.093 94.1143 239.546 94.7111C239 95.3079 238.31 95.7625 237.539 96.0337C236.769 96.3049 235.941 96.3844 235.131 96.2649C234.321 96.1455 233.554 95.8308 232.899 95.3493C232.245 94.8678 231.723 94.2346 231.38 93.5067C231.038 92.7788 230.886 91.9791 230.939 91.1796C230.991 90.38 231.246 89.6058 231.681 88.9267C232.115 88.2475 232.716 87.6848 233.428 87.2891C232.998 87.5261 232.607 87.825 232.268 88.1758C232.023 89.2082 232.132 90.2911 232.578 91.2569C233.025 92.2227 233.784 93.0177 234.739 93.5192C235.694 94.0206 236.791 94.2005 237.861 94.0311C238.931 93.8616 239.914 93.3523 240.659 92.5818L240.67 92.6148Z" fill="black"/>
<path d="M160.472 96.1672L158.736 99.5117L159.018 99.6513L160.753 96.3068L160.472 96.1672Z" fill="#455A64"/>
<path d="M157.727 95.233L157.459 95.3965L159.163 98.0695L159.431 97.9061L157.727 95.233Z" fill="#455A64"/>
<path d="M159.151 95.5996V103.663C159.148 103.685 159.139 103.707 159.125 103.725C159.111 103.743 159.093 103.758 159.072 103.767C159.014 103.795 158.95 103.809 158.886 103.809C158.822 103.809 158.758 103.795 158.7 103.767C158.68 103.757 158.663 103.742 158.65 103.724C158.638 103.705 158.63 103.684 158.627 103.663V95.5996H159.151Z" fill="#455A64"/>
<path d="M165.385 93.0869C165.385 93.8276 165.161 94.5517 164.74 95.1676C164.319 95.7834 163.721 96.2635 163.021 96.5469C162.322 96.8304 161.552 96.9045 160.809 96.76C160.066 96.6155 159.384 96.2588 158.848 95.7351C158.313 95.2113 157.948 94.544 157.8 93.8175C157.652 93.091 157.728 92.338 158.018 91.6537C158.308 90.9694 158.799 90.3845 159.428 89.973C160.058 89.5614 160.799 89.3418 161.556 89.3418C162.571 89.3433 163.544 89.7383 164.262 90.4403C164.98 91.1423 165.384 92.0941 165.385 93.0869Z" fill="#3566B1"/>
<path opacity="0.2" d="M162.755 92.1302C163.25 90.6101 163.774 90.0153 163.442 89.8281C162.808 89.4768 162.084 89.3099 161.356 89.3468C160.629 89.3838 159.927 89.623 159.333 90.0365C158.74 90.45 158.279 91.0206 158.006 91.6812C157.732 92.3418 157.657 93.0651 157.789 93.766C157.921 94.4669 158.255 95.1164 158.752 95.6382C159.248 96.1599 159.886 96.5323 160.592 96.7116C161.297 96.8909 162.04 96.8696 162.733 96.6502C163.427 96.4308 164.042 96.0225 164.506 95.4732C163.374 95.7927 162.113 94.1019 162.755 92.1302Z" fill="black"/>
<path d="M158.216 94.1447C158.217 94.6656 158.06 95.1751 157.765 95.6087C157.47 96.0424 157.05 96.3807 156.558 96.5808C156.066 96.7809 155.525 96.8338 155.002 96.7328C154.48 96.6319 153.999 96.3816 153.622 96.0136C153.245 95.6457 152.988 95.1766 152.884 94.6658C152.78 94.155 152.833 93.6254 153.036 93.144C153.24 92.6626 153.585 92.2511 154.028 91.9616C154.471 91.6721 154.991 91.5176 155.524 91.5176C156.237 91.5176 156.921 91.7942 157.425 92.2867C157.93 92.7792 158.214 93.4474 158.216 94.1447Z" fill="#3566B1"/>
<path opacity="0.2" d="M155.524 91.5137C154.96 91.5116 154.409 91.6852 153.953 92.0094C153.879 93.6175 155.276 95.1817 154.882 95.7104C154.488 96.2391 153.53 95.9142 153.192 95.4681C153.43 95.8676 153.77 96.199 154.18 96.4291C154.589 96.6591 155.053 96.7798 155.526 96.7788C155.998 96.7779 156.462 96.6555 156.87 96.4238C157.279 96.1921 157.618 95.8593 157.854 95.4589C158.089 95.0585 158.213 94.6045 158.212 94.1426C158.211 93.6806 158.086 93.227 157.85 92.8272C157.613 92.4275 157.273 92.0956 156.864 91.8651C156.455 91.6345 155.99 91.5133 155.518 91.5137H155.524Z" fill="black"/>
<path d="M158.886 96.1387C161.614 96.1387 163.825 93.9762 163.825 91.3086C163.825 88.641 161.614 86.4785 158.886 86.4785C156.158 86.4785 153.947 88.641 153.947 91.3086C153.947 93.9762 156.158 96.1387 158.886 96.1387Z" fill="#3566B1"/>
<path opacity="0.1" d="M163.695 92.4166C163.508 93.1981 163.124 93.9215 162.579 94.5216C162.034 95.1216 161.344 95.5793 160.573 95.8533C159.801 96.1273 158.972 96.209 158.16 96.0909C157.349 95.9729 156.58 95.6588 155.923 95.1771C155.267 94.6954 154.743 94.0613 154.4 93.3321C154.057 92.6029 153.905 91.8015 153.959 91.0005C154.012 90.1995 154.268 89.4241 154.705 88.7444C155.141 88.0647 155.744 87.5021 156.459 87.1074C156.032 87.3459 155.643 87.6447 155.304 87.9941C155.064 89.0254 155.176 90.1054 155.624 91.0683C156.072 92.0311 156.83 92.8236 157.783 93.3239C158.736 93.8243 159.831 94.0049 160.899 93.838C161.967 93.6711 162.949 93.166 163.695 92.4001V92.4166Z" fill="black"/>
<path d="M206.156 68.1504L209.839 70.2322V74.3959L206.156 72.3141V68.1504Z" fill="#E0E0E0"/>
<path d="M209.838 70.2322L213.526 68.1504V76.4722L209.838 74.3959V70.2322Z" fill="#F0F0F0"/>
<path d="M209.837 64.6094L205.771 66.9005V67.9414L209.837 70.2325L213.909 67.9414V66.9005L209.837 64.6094Z" fill="#455A64"/>
<path d="M205.771 67.9413L209.837 70.2324V69.1915L205.771 66.9004V67.9413Z" fill="#37474F"/>
<path d="M213.909 67.9413L209.838 70.2324V69.1915L213.909 66.9004V67.9413Z" fill="#263238"/>
<path d="M207.135 66.899L209.838 65.3789L212.546 66.899L209.838 68.4245L207.135 66.899Z" fill="#3566B1"/>
<path d="M209.838 65.3789V68.4245L207.135 66.899L209.838 65.3789Z" fill="#37474F"/>
<path d="M209.838 65.3789L212.547 66.899L209.838 68.4245V65.3789Z" fill="#263238"/>
<path d="M197.313 109.935L197.308 91.3359L208.272 97.5319V116.131L197.313 109.935Z" fill="#F0F0F0"/>
<path d="M197.308 91.3359L208.272 97.5319V104.939L197.308 98.7545V91.3359Z" fill="#E0E0E0"/>
<path d="M230.253 103.734V85.135L219.249 78.9336L208.273 97.5324V116.131L230.253 103.734Z" fill="#FAFAFA"/>
<path d="M206.46 100.632L219.249 78.9325V76.8672L204.63 101.667L206.46 100.632Z" fill="#37474F"/>
<path d="M197.308 64.4707L219.247 76.8681L204.628 101.668L197.313 97.5322L197.308 64.4707Z" fill="#455A64"/>
<path d="M219.248 78.9325L232.082 86.1638L233.912 85.1339L219.248 76.8672V78.9325Z" fill="#263238"/>
<path d="M223.838 95.34L228.14 92.9277V99.1292L223.838 101.541V95.34Z" fill="#455A64"/>
<path d="M227.774 98.9196V93.1367L223.838 95.3397V101.123L227.774 98.9196Z" fill="#E0E0E0"/>
<path d="M228.14 99.1292L227.774 98.9199L223.838 101.123V101.541L228.14 99.1292Z" fill="#37474F"/>
<path d="M223.838 98.4402L228.14 96.0279V95.6094L223.838 98.0217V98.4402Z" fill="#455A64"/>
<path d="M210.334 102.957L214.636 100.545V106.741L210.334 109.159V102.957Z" fill="#455A64"/>
<path d="M214.27 106.536V100.748L210.334 102.957V108.739L214.27 106.536Z" fill="#E0E0E0"/>
<path d="M214.636 106.741L214.27 106.537L210.334 108.74V109.159L214.636 106.741Z" fill="#37474F"/>
<path d="M210.334 106.057L214.636 103.645V103.227L210.334 105.639V106.057Z" fill="#455A64"/>
<path d="M216.507 88.2355L221.997 85.1348V89.7831L216.507 92.8838V88.2355Z" fill="#455A64"/>
<path d="M221.631 89.5732V85.3379L216.507 88.2348V92.4701L221.631 89.5732Z" fill="#E0E0E0"/>
<path d="M221.997 89.7835L221.631 89.5742L216.507 92.4712V92.8842L221.997 89.7835Z" fill="#37474F"/>
<path d="M232.082 86.1647H230.252V85.1348L232.082 86.1647Z" fill="black"/>
<path d="M216.185 111.659V99.2614L222.317 95.8027V108.2L216.185 111.659Z" fill="#37474F"/>
<path d="M222.103 108.04V95.9238L216.185 99.2614V111.378L222.103 108.04Z" fill="#455A64"/>
<path d="M222.317 95.8027L222.103 95.9239V108.04L222.317 108.2V95.8027Z" fill="#263238"/>
<path d="M197.308 109.935V91.3359L186.35 97.5319V116.131L197.308 109.935Z" fill="#FAFAFA"/>
<path d="M197.308 91.3359L186.35 97.5319V104.939L197.314 98.7545L197.308 91.3359Z" fill="#F5F5F5"/>
<path d="M164.371 103.734V85.135L175.369 78.9336L186.35 97.5324V116.131L164.371 103.734Z" fill="#EBEBEB"/>
<path d="M188.163 100.632L175.368 78.9325V76.8672L189.993 101.667L188.163 100.632Z" fill="#455A64"/>
<path d="M197.308 64.4707L175.368 76.8681L189.993 101.668L197.308 97.5322V64.4707Z" fill="#37474F"/>
<path d="M175.369 78.9325L162.541 86.1638L160.711 85.1339L175.369 76.8672V78.9325Z" fill="#263238"/>
<path d="M172.334 95.8146L168.031 93.4023V99.6038L172.334 102.011V95.8146Z" fill="#455A64"/>
<path d="M168.396 99.3938V93.6055L172.333 95.814V101.597L168.396 99.3938Z" fill="#FAFAFA"/>
<path d="M168.396 93.6055L172.333 95.8305V96.596L168.396 94.3875V93.6055Z" fill="#F5F5F5"/>
<path d="M178.736 99.4434L182.673 101.668V102.434L178.736 100.225V99.4434Z" fill="#F5F5F5"/>
<path d="M168.031 99.6038L168.397 99.3945L172.334 101.598V102.011L168.031 99.6038Z" fill="#37474F"/>
<path d="M172.334 98.9148L168.031 96.5026V96.084L172.334 98.4963V98.9148Z" fill="#455A64"/>
<path d="M178.117 88.2355L172.626 85.1348V89.7831L178.117 92.8838V88.2355Z" fill="#455A64"/>
<path d="M172.992 89.5732V85.3379L178.117 88.2348V92.4701L172.992 89.5732Z" fill="#FAFAFA"/>
<path d="M172.992 85.3379L178.117 88.2348V89.0004L172.992 86.1255V85.3379Z" fill="#F5F5F5"/>
<path d="M172.626 89.7835L172.992 89.5742L178.117 92.4712V92.8842L172.626 89.7835Z" fill="#37474F"/>
<path d="M162.541 86.1647H164.371V85.1348L162.541 86.1647Z" fill="black"/>
<path d="M182.672 101.669L178.37 99.2402V105.436L182.672 107.865V101.669Z" fill="#455A64"/>
<path d="M178.736 105.226V99.4434L182.673 101.668V107.451L178.736 105.226Z" fill="#FAFAFA"/>
<path d="M178.37 105.436L178.736 105.227L182.672 107.452V107.865L178.37 105.436Z" fill="#37474F"/>
<path d="M182.672 104.747L178.37 102.335V101.916L182.672 104.328V104.747Z" fill="#455A64"/>
<path d="M178.736 99.4434L182.673 101.668V102.434L178.736 100.225V99.4434Z" fill="#F5F5F5"/>
<path d="M204.629 101.669L199.133 98.5625V104.279L204.629 107.38V101.669Z" fill="#263238"/>
<path d="M199.471 104.085V98.7539L204.629 101.667V106.999L199.471 104.085Z" fill="#FAFAFA"/>
<path d="M199.471 98.7539V99.9931L204.629 102.912V101.667L199.471 98.7539Z" fill="#F0F0F0"/>
<path d="M199.133 104.279L199.471 104.086L204.629 106.999V107.379L199.133 104.279Z" fill="#37474F"/>
<path d="M199.133 101.421L199.471 101.229L204.629 104.142V104.528L199.133 101.421Z" fill="#37474F"/>
<path d="M201.77 105.766L202.107 105.953V100.242L201.77 100.049V105.766Z" fill="#37474F"/>
<path d="M193.553 114.094L194.527 113.544C194.795 111.995 194.835 110.416 194.645 108.857C194.155 105.817 192.032 104.765 191.266 105.068C190.5 105.37 190.32 106.274 191.711 108.031C192.969 109.809 193.614 111.933 193.553 114.094Z" fill="#3566B1"/>
<g opacity="0.2">
<path d="M193.552 114.094L194.526 113.544C194.794 111.995 194.834 110.416 194.644 108.857C194.154 105.817 192.031 104.765 191.265 105.068C190.499 105.37 190.319 106.274 191.71 108.031C192.968 109.809 193.613 111.933 193.552 114.094Z" fill="black"/>
</g>
<path d="M193.907 112.904C193.897 112.903 193.888 112.901 193.88 112.896C193.871 112.892 193.864 112.886 193.858 112.879C193.852 112.872 193.848 112.863 193.846 112.854C193.843 112.845 193.843 112.836 193.845 112.827C194.25 109.979 193.079 106.857 191.761 105.595C191.748 105.583 191.741 105.566 191.741 105.549C191.741 105.531 191.748 105.514 191.761 105.502C191.774 105.489 191.791 105.482 191.809 105.482C191.827 105.482 191.844 105.489 191.857 105.502C193.197 106.78 194.391 109.952 193.985 112.849C193.984 112.858 193.981 112.866 193.976 112.873C193.971 112.881 193.965 112.887 193.958 112.893C193.951 112.898 193.942 112.901 193.933 112.903C193.925 112.905 193.915 112.905 193.907 112.904Z" fill="white"/>
<path d="M190.849 115.641C190.691 115.73 190.376 115.542 190.252 115.46C190.045 115.32 189.878 115.13 189.767 114.909C189.643 114.66 189.599 114.379 189.644 114.105C189.668 113.96 189.702 113.816 189.745 113.675C189.79 113.532 189.829 113.394 189.869 113.257C189.92 113.121 189.941 112.977 189.931 112.833C189.892 112.694 189.826 112.565 189.735 112.452C189.644 112.339 189.53 112.246 189.401 112.177C189.257 112.095 189.133 111.981 189.042 111.845C188.95 111.708 188.892 111.552 188.872 111.39C188.89 111.122 188.999 110.868 189.182 110.668C189.351 110.459 189.548 110.277 189.7 110.057C189.804 109.938 189.865 109.79 189.876 109.634C189.886 109.478 189.844 109.323 189.756 109.192C189.614 108.978 189.489 108.754 189.385 108.52C189.333 108.403 189.317 108.274 189.338 108.148C189.359 108.022 189.416 107.905 189.503 107.81C189.588 107.747 189.685 107.702 189.789 107.676C189.892 107.651 190 107.646 190.105 107.661C190.305 107.683 190.498 107.749 190.668 107.854C191.232 108.157 191.547 108.807 192.138 109.038C192.372 109.111 192.611 109.168 192.853 109.209C192.975 109.23 193.091 109.276 193.193 109.344C193.295 109.413 193.381 109.502 193.445 109.605C193.664 110.029 193.259 110.553 193.411 111.004C193.563 111.456 193.946 111.555 194.166 111.918C194.26 112.074 194.297 112.257 194.273 112.436C194.253 112.742 194.176 113.043 194.047 113.323C193.9 113.597 193.735 113.862 193.552 114.116L190.849 115.641Z" fill="#3566B1"/>
<g opacity="0.1">
<path d="M190.849 115.641C190.691 115.73 190.376 115.542 190.252 115.46C190.045 115.32 189.878 115.13 189.767 114.909C189.643 114.66 189.599 114.379 189.644 114.105C189.668 113.96 189.702 113.816 189.745 113.675C189.79 113.532 189.829 113.394 189.869 113.257C189.92 113.121 189.941 112.977 189.931 112.833C189.892 112.694 189.826 112.565 189.735 112.452C189.644 112.339 189.53 112.246 189.401 112.177C189.257 112.095 189.133 111.981 189.042 111.845C188.95 111.708 188.892 111.552 188.872 111.39C188.89 111.122 188.999 110.868 189.182 110.668C189.351 110.459 189.548 110.277 189.7 110.057C189.804 109.938 189.865 109.79 189.876 109.634C189.886 109.478 189.844 109.323 189.756 109.192C189.614 108.978 189.489 108.754 189.385 108.52C189.333 108.403 189.317 108.274 189.338 108.148C189.359 108.022 189.416 107.905 189.503 107.81C189.588 107.747 189.685 107.702 189.789 107.676C189.892 107.651 190 107.646 190.105 107.661C190.305 107.683 190.498 107.749 190.668 107.854C191.232 108.157 191.547 108.807 192.138 109.038C192.372 109.111 192.611 109.168 192.853 109.209C192.975 109.23 193.091 109.276 193.193 109.344C193.295 109.413 193.381 109.502 193.445 109.605C193.664 110.029 193.259 110.553 193.411 111.004C193.563 111.456 193.946 111.555 194.166 111.918C194.26 112.074 194.297 112.257 194.273 112.436C194.253 112.742 194.176 113.043 194.047 113.323C193.9 113.597 193.735 113.862 193.552 114.116L190.849 115.641Z" fill="black"/>
</g>
<path d="M192.431 114.822C192.413 114.82 192.396 114.811 192.384 114.798C192.372 114.785 192.364 114.768 192.363 114.75C192.482 112.052 191.181 109.072 190.235 108.208C190.228 108.201 190.223 108.194 190.219 108.186C190.215 108.178 190.213 108.169 190.213 108.16C190.213 108.151 190.214 108.142 190.217 108.134C190.221 108.125 190.226 108.118 190.232 108.111C190.238 108.105 190.246 108.099 190.254 108.096C190.262 108.092 190.271 108.09 190.281 108.09C190.29 108.09 190.299 108.091 190.307 108.094C190.316 108.097 190.324 108.102 190.33 108.108C191.293 108.99 192.622 112.019 192.504 114.756C192.503 114.774 192.494 114.791 192.481 114.803C192.467 114.815 192.449 114.822 192.431 114.822Z" fill="white"/>
<path d="M192.014 111.633C191.359 111.459 190.687 111.354 190.009 111.319C190 111.319 189.991 111.317 189.982 111.314C189.973 111.31 189.966 111.305 189.959 111.298C189.953 111.291 189.948 111.283 189.945 111.275C189.942 111.266 189.941 111.257 189.942 111.248C189.943 111.23 189.951 111.213 189.965 111.201C189.979 111.188 189.996 111.182 190.015 111.182C190.704 111.217 191.388 111.326 192.053 111.507C192.062 111.509 192.07 111.513 192.077 111.519C192.084 111.524 192.089 111.531 192.093 111.539C192.098 111.546 192.1 111.555 192.101 111.563C192.102 111.572 192.101 111.581 192.098 111.589C192.092 111.605 192.08 111.619 192.065 111.627C192.049 111.635 192.031 111.637 192.014 111.633Z" fill="white"/>
<path d="M216.185 111.66L222.317 108.201L227.819 111.307L221.686 114.761L216.185 111.66Z" fill="#F0F0F0"/>
<path d="M117.018 120.646L63.4863 150.872V153.196L119.073 184.583L172.599 154.358V152.034L117.018 120.646Z" fill="#3566B1"/>
<path d="M141.723 162.498L147.861 166.006L158.172 160.185L152.017 156.688L141.723 162.498Z" fill="#F0F0F0"/>
<path opacity="0.15" d="M63.4863 150.871L119.073 182.258V184.582L63.4863 153.195V150.871Z" fill="black"/>
<path opacity="0.1" d="M119.072 182.258L172.598 152.033V154.357L119.072 184.582V182.258Z" fill="black"/>
<path d="M166.585 141.741L164.199 146.338L164.586 146.53L166.971 141.933L166.585 141.741Z" fill="#263238"/>
<path d="M162.152 141.35L161.788 141.57L164.115 145.246L164.479 145.026L162.152 141.35Z" fill="#263238"/>
<path d="M164.727 140.926V152.001C164.723 152.032 164.712 152.062 164.693 152.087C164.674 152.112 164.649 152.132 164.62 152.145C164.54 152.184 164.453 152.205 164.363 152.205C164.274 152.205 164.187 152.184 164.107 152.145C164.079 152.132 164.054 152.112 164.036 152.087C164.019 152.061 164.008 152.032 164.006 152.001V140.926H164.727Z" fill="#263238"/>
<path d="M168.044 142.622C170.949 142.622 173.304 140.319 173.304 137.478C173.304 134.637 170.949 132.334 168.044 132.334C165.139 132.334 162.784 134.637 162.784 137.478C162.784 140.319 165.139 142.622 168.044 142.622Z" fill="#455A64"/>
<path d="M169.693 136.166C170.369 134.073 171.096 133.258 170.634 133.004C169.763 132.522 168.769 132.292 167.769 132.343C166.769 132.393 165.805 132.722 164.989 133.29C164.174 133.859 163.541 134.643 163.165 135.55C162.79 136.458 162.687 137.452 162.869 138.415C163.051 139.378 163.51 140.27 164.192 140.986C164.875 141.703 165.752 142.214 166.722 142.459C167.691 142.705 168.712 142.675 169.664 142.373C170.616 142.071 171.461 141.509 172.098 140.754C170.544 141.194 168.815 138.875 169.693 136.166Z" fill="#37474F"/>
<path d="M159.76 142.55C161.8 142.55 163.454 140.932 163.454 138.937C163.454 136.942 161.8 135.324 159.76 135.324C157.719 135.324 156.065 136.942 156.065 138.937C156.065 140.932 157.719 142.55 159.76 142.55Z" fill="#455A64"/>
<path d="M159.76 135.318C158.984 135.317 158.227 135.556 157.598 136.001C157.502 138.204 159.417 140.363 158.882 141.09C158.347 141.817 157.024 141.366 156.567 140.754C156.894 141.301 157.362 141.754 157.924 142.068C158.486 142.382 159.123 142.547 159.771 142.544C160.418 142.542 161.054 142.373 161.613 142.055C162.173 141.737 162.637 141.28 162.96 140.731C163.283 140.182 163.452 139.56 163.451 138.926C163.45 138.293 163.279 137.671 162.955 137.123C162.631 136.575 162.165 136.119 161.604 135.803C161.044 135.486 160.408 135.319 159.76 135.318Z" fill="#37474F"/>
<path d="M170.976 136.55C171.836 132.985 169.579 129.414 165.934 128.573C162.29 127.732 158.638 129.939 157.778 133.503C156.918 137.068 159.175 140.639 162.82 141.48C166.464 142.321 170.116 140.114 170.976 136.55Z" fill="#455A64"/>
<path d="M170.983 136.552C170.719 137.615 170.189 138.597 169.442 139.411C168.694 140.224 167.752 140.843 166.699 141.213C165.647 141.583 164.517 141.691 163.411 141.528C162.305 141.366 161.258 140.937 160.363 140.281C159.468 139.625 158.753 138.762 158.284 137.769C157.814 136.777 157.603 135.686 157.671 134.594C157.738 133.502 158.081 132.444 158.67 131.514C159.259 130.584 160.074 129.811 161.043 129.266C160.456 129.593 159.921 130.003 159.455 130.483C159.338 130.979 159.277 131.488 159.275 131.997C159.264 133.33 159.664 134.635 160.424 135.74C161.185 136.846 162.269 137.702 163.535 138.194C164.801 138.687 166.189 138.793 167.518 138.5C168.848 138.207 170.055 137.528 170.983 136.552Z" fill="#37474F"/>
<path d="M73.9998 140.429L71.6143 145.025L72.0009 145.217L74.3865 140.621L73.9998 140.429Z" fill="#263238"/>
<path d="M69.5768 140.063L69.2129 140.283L71.5397 143.959L71.9036 143.739L69.5768 140.063Z" fill="#263238"/>
<path d="M72.1651 139.631V150.706C72.1629 150.737 72.1524 150.766 72.1345 150.792C72.1167 150.817 72.0923 150.837 72.0638 150.85C71.9844 150.889 71.8966 150.91 71.8076 150.91C71.7185 150.91 71.6307 150.889 71.5513 150.85C71.5221 150.837 71.4969 150.817 71.4781 150.792C71.4593 150.767 71.4476 150.737 71.4443 150.706V139.631H72.1651Z" fill="#263238"/>
<path d="M75.4696 141.333C78.3744 141.333 80.7293 139.03 80.7293 136.189C80.7293 133.348 78.3744 131.045 75.4696 131.045C72.5648 131.045 70.21 133.348 70.21 136.189C70.21 139.03 72.5648 141.333 75.4696 141.333Z" fill="#455A64"/>
<path d="M77.1202 134.873C77.796 132.78 78.5168 131.965 78.0607 131.712C77.1895 131.229 76.1956 130.999 75.1957 131.05C74.1958 131.1 73.2314 131.429 72.4159 131.997C71.6004 132.566 70.9677 133.35 70.5921 134.257C70.2165 135.165 70.1136 136.159 70.2956 137.122C70.4775 138.085 70.9367 138.977 71.6192 139.693C72.3017 140.41 73.1791 140.921 74.1484 141.167C75.1176 141.412 76.1384 141.382 77.0908 141.08C78.0432 140.778 78.8876 140.216 79.5248 139.461C77.9705 139.907 76.2361 137.583 77.1202 134.873Z" fill="#37474F"/>
<path d="M67.1854 141.255C69.2256 141.255 70.8795 139.638 70.8795 137.642C70.8795 135.647 69.2256 134.029 67.1854 134.029C65.1451 134.029 63.4912 135.647 63.4912 137.642C63.4912 139.638 65.1451 141.255 67.1854 141.255Z" fill="#455A64"/>
<path d="M67.1859 134.029C66.4104 134.028 65.654 134.265 65.0235 134.707C64.9221 136.91 66.8424 139.069 66.3074 139.796C65.7724 140.523 64.4491 140.071 63.9873 139.46C64.3131 140.007 64.7803 140.461 65.3422 140.776C65.904 141.091 66.5406 141.257 67.1883 141.255C67.8359 141.254 68.4718 141.086 69.0322 140.768C69.5926 140.451 70.0577 139.995 70.381 139.446C70.7043 138.897 70.8744 138.274 70.8741 137.641C70.8739 137.008 70.7035 136.385 70.3798 135.837C70.0562 135.288 69.5907 134.832 69.0301 134.515C68.4696 134.198 67.8336 134.03 67.1859 134.029Z" fill="#37474F"/>
<path d="M76.6006 138.433C79.2484 135.843 79.2484 131.645 76.6006 129.055C73.9528 126.466 69.6598 126.466 67.012 129.055C64.3642 131.645 64.3642 135.843 67.012 138.433C69.6598 141.023 73.9528 141.023 76.6006 138.433Z" fill="#455A64"/>
<path d="M78.4035 135.257C78.1401 136.321 77.6109 137.304 76.8633 138.118C76.1157 138.932 75.1731 139.551 74.1201 139.921C73.0672 140.291 71.9367 140.4 70.8304 140.237C69.724 140.074 68.6762 139.645 67.7812 138.989C66.8861 138.332 66.1717 137.469 65.7021 136.475C65.2325 135.482 65.0225 134.39 65.0907 133.298C65.159 132.206 65.5035 131.148 66.0932 130.218C66.683 129.288 67.4996 128.516 68.4698 127.971C67.8806 128.296 67.3451 128.706 66.8818 129.188C66.764 129.685 66.7036 130.193 66.7016 130.702C66.6913 132.034 67.0924 133.337 67.8523 134.442C68.6122 135.546 69.6954 136.4 70.9602 136.893C72.225 137.385 73.6123 137.492 74.9404 137.2C76.2685 136.909 77.4756 136.231 78.4035 135.257Z" fill="#37474F"/>
<path d="M88.1904 143.899L131.428 168.308V131.11L88.1904 106.701V143.899Z" fill="#F0F0F0"/>
<path d="M119.073 154.358V175.287L75.8408 150.872V129.949L119.073 154.358Z" fill="#F0F0F0"/>
<path d="M75.8408 136.922L119.073 161.336V154.358L75.8408 129.949V136.922Z" fill="#E0E0E0"/>
<path d="M88.1904 113.673L131.428 138.083V131.11L88.1904 106.695V113.673Z" fill="#E0E0E0"/>
<path d="M131.429 131.111L160.25 114.836V152.034L131.429 168.308V131.111Z" fill="#FAFAFA"/>
<path d="M119.072 154.357L131.427 142.736V168.308L119.072 175.286V154.357Z" fill="#FAFAFA"/>
<path d="M145.839 106.695L131.429 131.11L160.25 114.835L145.839 106.695Z" fill="#FAFAFA"/>
<path d="M129.367 134.596L145.839 106.695V104.955L129.367 132.856V134.596Z" fill="#3566B1"/>
<path opacity="0.1" d="M129.367 134.596L145.839 106.695V104.955L129.367 132.856V134.596Z" fill="black"/>
<path d="M102.604 80.5458L86.1348 108.443L129.368 132.855L145.837 104.958L102.604 80.5458Z" fill="#3566B1"/>
<path d="M86.1357 108.441L129.367 132.856V134.596L86.1357 110.187V108.441Z" fill="#3566B1"/>
<path opacity="0.15" d="M86.1357 108.441L129.367 132.856V134.596L86.1357 110.187V108.441Z" fill="black"/>
<path d="M145.839 104.955L163.853 115.127L162.305 115.998L145.839 106.695V104.955Z" fill="#3566B1"/>
<path opacity="0.15" d="M145.839 104.955L163.853 115.127L162.305 115.998L145.839 106.695V104.955Z" fill="black"/>
<path d="M162.305 115.998H160.25V114.836L162.305 115.998Z" fill="#3566B1"/>
<path opacity="0.3" d="M162.305 115.998H160.25V114.836L162.305 115.998Z" fill="black"/>
<path d="M94.8252 108.112V99.7403L99.7526 96.959L104.663 105.275V113.674L94.8252 108.112Z" fill="#F0F0F0"/>
<path opacity="0.2" d="M99.7525 96.9593L93.6707 100.39L92.8936 99.9499L99.7525 96.0781V96.9593Z" fill="black"/>
<path d="M104.662 113.673L109.578 105.335L112.09 101.072L104.662 105.274V113.673Z" fill="#FAFAFA"/>
<path opacity="0.4" d="M93.6709 100.39H94.8253V99.7402L93.6709 100.39Z" fill="black"/>
<path d="M105.834 107.258L99.752 96.9593V96.0781L106.594 107.688L105.834 107.258Z" fill="#3566B1"/>
<path opacity="0.1" d="M105.834 107.258L99.752 96.9593V96.0781L106.594 107.688L105.834 107.258Z" fill="black"/>
<path d="M106.594 107.688L99.752 96.0785L106.831 92.0801L113.673 103.69L106.594 107.688Z" fill="#3566B1"/>
<path opacity="0.3" d="M106.594 107.688L99.752 96.0785L106.831 92.0801L113.673 103.69L106.594 107.688Z" fill="white"/>
<path d="M102.208 103.932L97.2861 101.15V106.702L102.208 109.483V103.932Z" fill="#455A64"/>
<path d="M97.7871 106.416V101.432L102.208 103.932V108.911L97.7871 106.416Z" fill="#E0E0E0"/>
<path d="M97.2861 106.702L97.7873 106.416L102.208 108.911V109.484L97.2861 106.702Z" fill="#37474F"/>
<path d="M115.407 119.739V111.367L120.34 108.586L125.251 116.902V125.301L115.407 119.739Z" fill="#F0F0F0"/>
<path opacity="0.2" d="M120.34 108.584L114.258 112.016L113.476 111.575L120.34 107.703V108.584Z" fill="black"/>
<path d="M125.251 125.3L130.161 116.962L132.673 112.699L125.251 116.901V125.3Z" fill="#FAFAFA"/>
<path opacity="0.4" d="M114.259 112.017H115.408V111.367L114.259 112.017Z" fill="black"/>
<path d="M126.422 118.883L120.34 108.584V107.703L127.176 119.313L126.422 118.883Z" fill="#3566B1"/>
<path opacity="0.1" d="M126.422 118.883L120.34 108.584V107.703L127.176 119.313L126.422 118.883Z" fill="black"/>
<path d="M127.176 119.313L120.34 107.703L127.413 103.699L134.255 115.309L127.176 119.313Z" fill="#3566B1"/>
<path opacity="0.3" d="M127.176 119.313L120.34 107.703L127.413 103.699L134.255 115.309L127.176 119.313Z" fill="white"/>
<path d="M122.79 115.551L117.868 112.775V118.327L122.79 121.108V115.551Z" fill="#455A64"/>
<path d="M118.375 118.041V113.057L122.79 115.552V120.536L118.375 118.041Z" fill="#E0E0E0"/>
<path d="M117.868 118.327L118.375 118.041L122.79 120.536V121.109L117.868 118.327Z" fill="#37474F"/>
<path d="M88.1918 116.752L131.429 141.161V142.736L117.019 157.849L73.7812 133.434V131.865L88.1918 116.752Z" fill="#3566B1"/>
<path d="M88.1918 116.752L131.429 141.161L117.019 156.274L73.7812 131.865L88.1918 116.752Z" fill="#3566B1"/>
<path opacity="0.1" d="M117.018 156.275V157.85L131.428 142.737V141.162L117.018 156.275Z" fill="black"/>
<path opacity="0.15" d="M117.019 157.85L73.7812 133.435V131.865L117.019 156.274V157.85Z" fill="black"/>
<path d="M92.3126 143.894L82.0186 138.084V148.78L92.3126 154.59V143.894Z" fill="#263238"/>
<path d="M82.6494 148.421V138.441L92.3128 143.899V153.873L82.6494 148.421Z" fill="#FAFAFA"/>
<path d="M82.6494 138.441V140.771L92.3128 146.223V143.894L82.6494 138.441Z" fill="#F0F0F0"/>
<path d="M82.0186 148.778L82.6493 148.42L92.3126 153.872V154.588L82.0186 148.778Z" fill="#37474F"/>
<path d="M82.0186 143.43L82.6493 143.072L92.3126 148.525V149.241L82.0186 143.43Z" fill="#37474F"/>
<path d="M86.9512 151.565L87.5819 151.923V141.227L86.9512 140.869V151.565Z" fill="#37474F"/>
<path d="M110.841 154.357L100.547 148.547V159.242L110.841 165.053V154.357Z" fill="#263238"/>
<path d="M101.177 158.886V148.906L110.84 154.359V164.338L101.177 158.886Z" fill="#FAFAFA"/>
<path d="M101.177 148.906V151.23L110.84 156.688V154.359L101.177 148.906Z" fill="#F0F0F0"/>
<path d="M100.547 159.243L101.178 158.885L110.841 164.337V165.053L100.547 159.243Z" fill="#37474F"/>
<path d="M100.547 153.895L101.178 153.537L110.841 158.99V159.706L100.547 153.895Z" fill="#37474F"/>
<path d="M105.479 162.03L106.11 162.388V151.692L105.479 151.334V162.03Z" fill="#37474F"/>
<path d="M125.251 155.525L135.545 149.709V160.405L125.251 166.215V155.525Z" fill="#263238"/>
<path d="M134.914 160.046V150.066L125.251 155.524V165.498L134.914 160.046Z" fill="#E6E6E6"/>
<path d="M134.914 150.066V151.091L125.251 156.543V155.524L134.914 150.066Z" fill="#E0E0E0"/>
<path d="M135.545 160.405L134.914 160.047L125.251 165.499V166.215L135.545 160.405Z" fill="#37474F"/>
<path d="M135.545 155.057L134.914 154.699L125.251 160.152V160.868L135.545 155.057Z" fill="#37474F"/>
<path d="M130.611 163.192L129.98 163.55V152.854L130.611 152.496V163.192Z" fill="#37474F"/>
<path d="M141.531 120.91L151.825 115.1V125.795L141.531 131.606V120.91Z" fill="#263238"/>
<path d="M151.195 125.439V115.459L141.531 120.911V130.891L151.195 125.439Z" fill="#E6E6E6"/>
<path d="M151.195 115.459V116.483L141.531 121.936V120.911L151.195 115.459Z" fill="#E0E0E0"/>
<path d="M151.825 125.795L151.195 125.438L141.531 130.89V131.606L151.825 125.795Z" fill="#37474F"/>
<path d="M151.825 120.448L151.195 120.09L141.531 125.548V126.264L151.825 120.448Z" fill="#37474F"/>
<path d="M146.891 128.582L146.261 128.94V118.245L146.891 117.887V128.582Z" fill="#37474F"/>
<path d="M141.723 162.499V143.9L152.017 138.084V156.688L141.723 162.499Z" fill="#37474F"/>
<path d="M151.639 156.407V138.299L141.723 143.9V162.009L151.639 156.407Z" fill="#455A64"/>
<path d="M152.017 138.084L151.64 138.299V156.407L152.017 156.688V138.084Z" fill="#263238"/>
<path d="M200.451 8.04689C200.419 6.58833 200.037 5.15757 199.334 3.87058C198.632 2.5836 197.629 1.4766 196.408 0.639319C195.281 -0.060133 194.2 -0.164774 193.412 0.231765C188.653 2.56694 155.214 23.534 153.08 24.5694H153.052C152.827 24.7153 152.646 24.9173 152.527 25.1544C152.408 25.3916 152.356 25.6554 152.376 25.9187C152.389 26.6539 152.58 27.3757 152.934 28.0247C153.287 28.6738 153.793 29.2317 154.409 29.6528C154.622 29.8157 154.876 29.9199 155.145 29.9548C155.413 29.9896 155.686 29.9538 155.935 29.8511H155.969C159.348 28.0281 192.353 14.2704 199.099 10.7346C199.893 10.305 200.406 9.37971 200.451 8.04689Z" fill="#3566B1"/>
<path opacity="0.1" d="M199.139 3.5246C198.477 2.36317 197.54 1.37361 196.407 0.638673C195.281 -0.060779 194.211 -0.165421 193.423 0.225611L193.322 0.280685C188.98 2.45064 164.095 17.9763 155.721 23.0266L155.665 23.0597L155.327 23.2635L155.226 23.324L155.034 23.4397L154.809 23.5719C153.925 24.1226 153.328 24.4421 153.119 24.5577H153.091C153.02 24.5993 152.953 24.6492 152.894 24.7064C152.736 24.865 152.612 25.053 152.53 25.2592C152.448 25.4655 152.409 25.6858 152.416 25.907C152.404 26.0629 152.404 26.2193 152.416 26.3752C152.416 26.4358 152.416 26.4963 152.444 26.5569C152.472 26.6175 152.477 26.7442 152.5 26.8433C152.523 26.9425 152.539 26.9975 152.562 27.0691C152.584 27.1407 152.618 27.2509 152.652 27.339C152.686 27.4271 152.703 27.4712 152.725 27.5373V27.5703L199.139 3.5246Z" fill="black"/>
<path d="M154.403 29.6581C153.79 29.238 153.286 28.6825 152.933 28.0367C152.579 27.3908 152.387 26.6727 152.37 25.9405C152.421 24.5967 153.401 24.079 154.566 24.7894C155.181 25.2101 155.685 25.7664 156.038 26.4132C156.391 27.0601 156.583 27.7793 156.599 28.5125C156.554 29.8563 155.569 30.3795 154.403 29.6581Z" fill="#3566B1"/>
<path d="M144.409 30.5616C144.422 31.1242 144.57 31.6759 144.841 32.1723C145.112 32.6688 145.498 33.0961 145.968 33.42C146.132 33.5436 146.326 33.6224 146.531 33.6486C146.736 33.6747 146.944 33.6471 147.134 33.5687L155.221 29.3555C155.392 29.2439 155.531 29.0899 155.622 28.9089C155.713 28.728 155.753 28.5267 155.739 28.3256C155.726 27.7628 155.579 27.2108 155.308 26.7142C155.037 26.2176 154.65 25.7904 154.179 25.4672C154.016 25.3422 153.822 25.262 153.618 25.2348C153.413 25.2077 153.204 25.2347 153.013 25.313L144.927 29.5262C144.754 29.6382 144.615 29.7931 144.524 29.9751C144.433 30.1571 144.393 30.3596 144.409 30.5616Z" fill="#37474F"/>
<path d="M144.937 29.5262C144.763 29.6368 144.621 29.7912 144.528 29.9733C144.435 30.1554 144.394 30.3585 144.408 30.5616C144.405 30.9796 144.489 31.3937 144.656 31.7788L155.085 26.3374C154.849 25.992 154.544 25.6962 154.19 25.4672C154.027 25.3422 153.833 25.262 153.628 25.2348C153.423 25.2077 153.215 25.2347 153.024 25.313L144.937 29.5262Z" fill="#263238"/>
<path d="M154.787 37.577C154.787 32.5101 151.363 27.4432 144.51 23.577C130.814 15.8389 108.604 15.8389 94.9034 23.577C88.0557 27.4322 84.6318 32.5101 84.6318 37.577V46.9397C84.6318 52.0066 88.0557 57.0735 94.909 60.9453C108.604 68.6558 130.814 68.6558 144.51 60.9453C151.363 57.09 154.787 52.0066 154.787 46.9397V37.577ZM96.5871 26.4464C102.703 22.9932 110.908 21.0931 119.676 21.0931C128.444 21.0931 136.665 22.9932 142.764 26.4464C148.294 29.5691 151.341 33.5235 151.341 37.5825C151.341 41.6415 148.294 45.5904 142.764 48.7131C136.648 52.1663 128.444 54.0664 119.676 54.0664C110.908 54.0664 102.686 52.1663 96.5871 48.7131C91.0515 45.5904 88.0106 41.636 88.0106 37.5825C88.0106 33.529 91.0684 29.5691 96.5871 26.4464Z" fill="#3566B1"/>
<path opacity="0.3" d="M94.8965 51.5824C108.598 59.3205 130.802 59.3205 144.503 51.5824C158.204 43.8444 158.204 31.3094 144.503 23.5768C130.802 15.8443 108.598 15.8388 94.8965 23.5768C81.1955 31.3149 81.2068 43.8499 94.8965 51.5824ZM88.0151 37.5824C88.0151 33.5234 91.0616 29.569 96.5916 26.4462C102.713 22.9931 110.918 21.093 119.68 21.093C128.442 21.093 136.67 22.9931 142.768 26.4462C148.298 29.569 151.345 33.5234 151.345 37.5824C151.345 41.6414 148.298 45.5903 142.768 48.713C136.647 52.1662 128.442 54.0663 119.68 54.0663C110.918 54.0663 102.69 52.1662 96.5916 48.713C91.0672 45.5903 88.0207 41.6359 88.0207 37.5824H88.0151Z" fill="white"/>
<path d="M88.0215 37.5777C88.0415 39.228 88.5141 40.8428 89.3899 42.2535C90.7808 39.8963 93.2305 37.6878 96.6036 35.7877C102.714 32.329 110.924 30.4289 119.692 30.4289C128.46 30.4289 136.682 32.329 142.781 35.7877C146.159 37.6878 148.603 39.8963 150 42.2535C150.871 40.8413 151.342 39.2271 151.363 37.5777C151.363 33.5242 148.316 29.5698 142.781 26.447C136.671 22.9938 128.46 21.0938 119.692 21.0938C110.924 21.0938 102.697 22.9938 96.6036 26.447C91.068 29.5698 88.0215 33.5242 88.0215 37.5777Z" fill="#3566B1"/>
<path opacity="0.1" d="M88.0215 37.5777C88.0415 39.228 88.5141 40.8428 89.3899 42.2535C90.7808 39.8963 93.2305 37.6878 96.6036 35.7877C102.714 32.329 110.924 30.4289 119.692 30.4289C128.46 30.4289 136.682 32.329 142.781 35.7877C146.159 37.6878 148.603 39.8963 150 42.2535C150.871 40.8413 151.342 39.2271 151.363 37.5777C151.363 33.5242 148.316 29.5698 142.781 26.447C136.671 22.9938 128.46 21.0938 119.692 21.0938C110.924 21.0938 102.697 22.9938 96.6036 26.447C91.068 29.5698 88.0215 33.5242 88.0215 37.5777Z" fill="black"/>
<path opacity="0.4" d="M96.586 30.6772C102.707 27.224 110.912 25.3184 119.674 25.3184C128.437 25.3184 136.664 27.224 142.763 30.6772C147.324 33.2547 150.191 36.3939 151.058 39.6929C150.191 42.9974 147.324 46.1367 142.763 48.7142C136.642 52.1674 128.437 54.0675 119.674 54.0675C110.912 54.0675 102.685 52.1674 96.586 48.7142C92.0246 46.1367 89.1582 42.9919 88.291 39.6929C89.1695 36.3939 92.0358 33.2547 96.586 30.6772Z" fill="white"/>
<path opacity="0.1" d="M111.442 56.8148V66.1775C105.382 65.3514 99.6159 63.6055 94.9081 60.9344C88.0547 57.0791 84.6309 51.9957 84.6309 46.9233V37.5606C84.6333 36.5283 84.7734 35.5007 85.0476 34.5039C83.3582 40.5346 86.6694 46.9178 94.8968 51.5771C99.6384 54.2593 105.382 56.0052 111.442 56.8148Z" fill="black"/>
</svg>
