<svg width="24" height="24" viewBox="0 0 24 24" fill="none" xmlns="http://www.w3.org/2000/svg">
<path d="M4 10.625C4 10.8438 4.15625 11 4.375 11H5.125C5.3125 11 5.5 10.8438 5.5 10.625V7.5H8.625C8.8125 7.5 9 7.34375 9 7.125V6.375C9 6.1875 8.8125 6 8.625 6H4.75C4.3125 6 4 6.34375 4 6.75V10.625ZM15 6.375V7.125C15 7.34375 15.1562 7.5 15.375 7.5H18.5V10.625C18.5 10.8438 18.6562 11 18.875 11H19.625C19.8125 11 20 10.8438 20 10.625V6.75C20 6.34375 19.6562 6 19.25 6H15.375C15.1562 6 15 6.1875 15 6.375ZM19.625 13H18.875C18.6562 13 18.5 13.1875 18.5 13.375V16.5H15.375C15.1562 16.5 15 16.6875 15 16.875V17.625C15 17.8438 15.1562 18 15.375 18H19.25C19.6562 18 20 17.6875 20 17.25V13.375C20 13.1875 19.8125 13 19.625 13ZM9 17.625V16.875C9 16.6875 8.8125 16.5 8.625 16.5H5.5V13.375C5.5 13.1875 5.3125 13 5.125 13H4.375C4.15625 13 4 13.1875 4 13.375V17.25C4 17.6875 4.3125 18 4.75 18H8.625C8.8125 18 9 17.8438 9 17.625Z" fill="#929292"/>
</svg>
