<svg width="34" height="34" viewBox="0 0 34 34" fill="none" xmlns="http://www.w3.org/2000/svg">
<path d="M18.1603 33.9997H1.87652C0.839844 33.9997 0 33.1593 0 32.1231V1.87651C0 0.83997 0.839976 0 1.87652 0H32.1233C33.1596 0 33.9997 0.83997 33.9997 1.87651V32.1231C33.9997 33.1595 33.1595 33.9997 32.1233 33.9997H23.4593V20.8331H27.8787L28.5405 15.7019H23.4593V12.4259C23.4593 10.9403 23.8718 9.92792 26.0022 9.92792L28.7193 9.92673V5.33731C28.2494 5.27478 26.6365 5.13507 24.76 5.13507C20.8424 5.13507 18.1603 7.52635 18.1603 11.9178V15.7019H13.7296V20.8331H18.1603V33.9997Z" fill="#B7B7B7"/>
</svg>
