<svg width="25" height="25" viewBox="0 0 25 25" fill="none" xmlns="http://www.w3.org/2000/svg">
<g clip-path="url(#clip0_592_15986)">
<path d="M24.6452 13.0692C24.6452 12.2535 24.579 11.4334 24.4379 10.6309H13.1191V15.2518H19.6009C19.3319 16.7422 18.4677 18.0606 17.2022 18.8984V21.8967H21.0692C23.34 19.8067 24.6452 16.7201 24.6452 13.0692Z" fill="#4285F4"/>
<path d="M13.119 24.7943C16.3555 24.7943 19.0848 23.7316 21.0734 21.8974L17.2065 18.899C16.1306 19.631 14.7416 20.0454 13.1234 20.0454C9.99279 20.0454 7.33837 17.9334 6.38595 15.0938H2.39551V18.1847C4.43262 22.2369 8.5818 24.7943 13.119 24.7943Z" fill="#34A853"/>
<path d="M6.38168 15.0937C5.87902 13.6033 5.87902 11.9895 6.38168 10.4991V7.4082H2.39564C0.69364 10.799 0.69364 14.7938 2.39564 18.1846L6.38168 15.0937Z" fill="#FBBC04"/>
<path d="M13.119 5.54263C14.8298 5.51617 16.4833 6.15994 17.7223 7.34164L21.1484 3.91559C18.979 1.87847 16.0997 0.758503 13.119 0.793777C8.5818 0.793777 4.43262 3.35119 2.39551 7.40778L6.38154 10.4987C7.32955 7.6547 9.98838 5.54263 13.119 5.54263Z" fill="#EA4335"/>
</g>
<defs>
<clipPath id="clip0_592_15986">
<rect width="24" height="24" fill="white" transform="translate(0.878906 0.792969)"/>
</clipPath>
</defs>
</svg>
