<svg width="24" height="24" viewBox="0 0 24 24" fill="none" xmlns="http://www.w3.org/2000/svg">
<g id="house">
<g id="vuesax/linear/house">
<g id="house_2">
<path id="Vector" d="M2 22H22" stroke="#262626" stroke-width="1.5" stroke-miterlimit="10" stroke-linecap="round" stroke-linejoin="round"/>
<path id="Vector_2" d="M2.9502 21.9993L3.00019 9.96926C3.00019 9.35926 3.2902 8.77931 3.7702 8.39931L10.7702 2.9493C11.4902 2.3893 12.5002 2.3893 13.2302 2.9493L20.2302 8.3893C20.7202 8.7693 21.0002 9.34926 21.0002 9.96926V21.9993" stroke="#262626" stroke-width="1.5" stroke-miterlimit="10" stroke-linejoin="round"/>
<path id="Vector_3" d="M13 17H11C10.17 17 9.5 17.67 9.5 18.5V22H14.5V18.5C14.5 17.67 13.83 17 13 17Z" stroke="#262626" stroke-width="1.5" stroke-miterlimit="10" stroke-linejoin="round"/>
<path id="Vector_4" d="M9.5 13.75H7.5C6.95 13.75 6.5 13.3 6.5 12.75V11.25C6.5 10.7 6.95 10.25 7.5 10.25H9.5C10.05 10.25 10.5 10.7 10.5 11.25V12.75C10.5 13.3 10.05 13.75 9.5 13.75Z" stroke="#262626" stroke-width="1.5" stroke-miterlimit="10" stroke-linejoin="round"/>
<path id="Vector_5" d="M16.5 13.75H14.5C13.95 13.75 13.5 13.3 13.5 12.75V11.25C13.5 10.7 13.95 10.25 14.5 10.25H16.5C17.05 10.25 17.5 10.7 17.5 11.25V12.75C17.5 13.3 17.05 13.75 16.5 13.75Z" stroke="#262626" stroke-width="1.5" stroke-miterlimit="10" stroke-linejoin="round"/>
<path id="Vector_6" d="M19.0003 7L18.9703 4H14.5703" stroke="#262626" stroke-width="1.5" stroke-miterlimit="10" stroke-linecap="round" stroke-linejoin="round"/>
</g>
</g>
</g>
</svg>
