<svg width="17" height="23" viewBox="0 0 17 23" fill="none" xmlns="http://www.w3.org/2000/svg">
<path d="M8.62504 0.279297C4.05512 0.279297 0.424805 3.97123 0.424805 8.42701C0.424805 11.4824 1.40712 12.416 6.87395 21.0729C7.68543 22.346 9.52194 22.346 10.3334 21.0729C15.8003 12.416 16.8253 11.4824 16.8253 8.42701C16.8253 3.92879 13.1095 0.279297 8.62504 0.279297ZM8.62504 19.9696C3.15822 11.3127 2.47486 10.761 2.47486 8.42701C2.47486 5.07457 5.20828 2.31623 8.62504 2.31623C11.9991 2.31623 14.7752 5.07457 14.7752 8.42701C14.7752 10.761 14.0919 11.2278 8.62504 19.9696ZM5.20828 8.42701C5.20828 10.3366 6.70311 11.8219 8.62504 11.8219C10.5043 11.8219 12.0418 10.3366 12.0418 8.42701C12.0418 6.55983 10.5043 5.03213 8.62504 5.03213C6.70311 5.03213 5.20828 6.55983 5.20828 8.42701Z" fill="#D4D4D4"/>
</svg>
