<svg width="261" height="171" viewBox="0 0 261 171" fill="none" xmlns="http://www.w3.org/2000/svg">
<path d="M260.43 149.594H0.429688V149.708H260.43V149.594Z" fill="#EBEBEB"/>
<path d="M234.378 156.926H217.155V157.04H234.378V156.926Z" fill="#EBEBEB"/>
<path d="M172.664 158.166H168.146V158.28H172.664V158.166Z" fill="#EBEBEB"/>
<path d="M216.635 152.697H206.656V152.811H216.635V152.697Z" fill="#EBEBEB"/>
<path d="M50.1678 153.463H27.709V153.577H50.1678V153.463Z" fill="#EBEBEB"/>
<path d="M58.0914 153.463H54.7998V153.577H58.0914V153.463Z" fill="#EBEBEB"/>
<path d="M117.509 155.387H68.7949V155.501H117.509V155.387Z" fill="#EBEBEB"/>
<path d="M123.67 129.272H23.2628C22.4762 129.271 21.7224 128.997 21.1666 128.509C20.6109 128.021 20.2988 127.36 20.2988 126.671V2.99305C20.3057 2.30776 20.6208 1.65252 21.1758 1.16963C21.7307 0.686751 22.4807 0.415236 23.2628 0.414062H123.67C124.457 0.414063 125.212 0.688177 125.769 1.1761C126.326 1.66403 126.639 2.3258 126.639 3.01584V126.671C126.639 127.361 126.326 128.023 125.769 128.51C125.212 128.998 124.457 129.272 123.67 129.272ZM23.2628 0.505193C22.5107 0.5064 21.7899 0.769045 21.2586 1.23548C20.7272 1.70191 20.4288 2.33402 20.4288 2.99305V126.671C20.4288 127.33 20.7272 127.962 21.2586 128.428C21.7899 128.895 22.5107 129.157 23.2628 129.159H123.67C124.422 129.157 125.144 128.895 125.676 128.429C126.208 127.962 126.507 127.33 126.509 126.671V2.99305C126.507 2.3336 126.208 1.7015 125.676 1.2352C125.144 0.768897 124.422 0.506398 123.67 0.505193H23.2628Z" fill="#EBEBEB"/>
<path d="M236.151 129.272H135.739C134.952 129.271 134.197 128.997 133.641 128.509C133.084 128.021 132.771 127.36 132.77 126.671V2.99305C132.778 2.30735 133.094 1.6521 133.65 1.16935C134.206 0.686592 134.956 0.415224 135.739 0.414062H236.151C236.932 0.416434 237.681 0.688479 238.234 1.17123C238.788 1.65399 239.103 2.30855 239.11 2.99305V126.671C239.11 127.359 238.798 128.02 238.244 128.507C237.689 128.995 236.936 129.27 236.151 129.272ZM135.739 0.505193C134.986 0.506398 134.265 0.768897 133.733 1.2352C133.2 1.7015 132.901 2.3336 132.9 2.99305V126.671C132.901 127.33 133.2 127.962 133.733 128.429C134.265 128.895 134.986 129.157 135.739 129.159H236.151C236.903 129.157 237.625 128.895 238.157 128.429C238.689 127.962 238.989 127.33 238.99 126.671V2.99305C238.989 2.3336 238.689 1.7015 238.157 1.2352C237.625 0.768897 236.903 0.506398 236.151 0.505193H135.739Z" fill="#EBEBEB"/>
<path d="M202.553 119.74C218.403 119.74 231.252 111.082 231.252 100.402C231.252 89.7223 218.403 81.0645 202.553 81.0645C186.703 81.0645 173.854 89.7223 173.854 100.402C173.854 111.082 186.703 119.74 202.553 119.74Z" fill="#EBEBEB"/>
<path d="M196.547 95.4134C209.077 95.4134 219.235 88.5671 219.235 80.1218C219.235 71.6764 209.077 64.8301 196.547 64.8301C184.017 64.8301 173.859 71.6764 173.859 80.1218C173.859 88.5671 184.017 95.4134 196.547 95.4134Z" fill="#EBEBEB"/>
<path d="M58.0916 138.91C66.5866 138.91 73.4732 134.269 73.4732 128.544C73.4732 122.819 66.5866 118.178 58.0916 118.178C49.5965 118.178 42.71 122.819 42.71 128.544C42.71 134.269 49.5965 138.91 58.0916 138.91Z" fill="#EBEBEB"/>
<path d="M48.4929 130.863C37.2817 130.863 28.2129 139.247 28.2129 149.595H68.8093C68.7937 139.247 59.7093 130.863 48.4929 130.863Z" fill="#EBEBEB"/>
<path d="M148.942 52.8633H58.7949V149.594H148.942V52.8633Z" fill="#F0F0F0"/>
<path d="M148.936 149.594H202.064V52.8633H148.936V149.594Z" fill="#E6E6E6"/>
<path d="M165.472 95.7598H185.539V62.1782H165.472V95.7598Z" fill="#F5F5F5"/>
<path d="M111.111 78.0762H131.178V57.827H111.111V78.0762Z" fill="#F5F5F5"/>
<path d="M76.5582 78.0762H96.625V57.827H76.5582V78.0762Z" fill="#F5F5F5"/>
<path d="M111.111 85.5703H131.178V81.8249H111.111V85.5703Z" fill="#F5F5F5"/>
<path d="M76.5582 85.5703H96.625V81.8249H76.5582V85.5703Z" fill="#F5F5F5"/>
<path d="M148.936 149.594H202.064V107.491H148.936V149.594Z" fill="#F5F5F5"/>
<path d="M177.152 134.594H193.933V114.058H177.152V134.594Z" fill="#E6E6E6"/>
<path d="M157.079 134.594H173.859V114.058H157.079V134.594Z" fill="#E6E6E6"/>
<path d="M148.942 107.492H58.7949V149.594H148.942V107.492Z" fill="#FAFAFA"/>
<path d="M93.1517 112.961H73.4697V147.226H93.1517V112.961Z" fill="#E6E6E6"/>
<path d="M156.991 22.7402H103.868L148.942 52.8634H202.065L156.991 22.7402Z" fill="#F0F0F0"/>
<path d="M93.9822 19.1465H79.1934V45.7748H93.9822V19.1465Z" fill="#EBEBEB"/>
<path d="M103.869 22.7402L58.7949 52.8634H148.942L103.869 22.7402Z" fill="#FAFAFA"/>
<path d="M103.868 28.5371L67.4678 52.8644H140.268L103.868 28.5371Z" fill="#F0F0F0"/>
<path d="M124.305 90.9883H63.2932L49.6016 102.986V107.492H138.002V102.986L124.305 90.9883Z" fill="#E6E6E6"/>
<path d="M202.071 144.855H49.6016V149.594H202.071V144.855Z" fill="#E6E6E6"/>
<path d="M148.943 128.543H88.1963V144.855H148.943V128.543Z" fill="#F0F0F0"/>
<path d="M124.711 107.492H121.128V144.856H124.711V107.492Z" fill="#E6E6E6"/>
<path d="M55.9549 107.492H52.3721V144.856H55.9549V107.492Z" fill="#E6E6E6"/>
<path d="M130.429 170.171C186.112 170.171 231.252 167.862 231.252 165.013C231.252 162.165 186.112 159.855 130.429 159.855C74.7463 159.855 29.6064 162.165 29.6064 165.013C29.6064 167.862 74.7463 170.171 130.429 170.171Z" fill="#F5F5F5"/>
<path d="M149.837 80.541H142.604V166.381H149.837V80.541Z" fill="#407BFF"/>
<path opacity="0.3" d="M149.837 80.541H142.604V166.381H149.837V80.541Z" fill="white"/>
<path d="M157.07 80.541H149.837V166.381H157.07V80.541Z" fill="#407BFF"/>
<path opacity="0.5" d="M157.07 80.541H149.837V166.381H157.07V80.541Z" fill="white"/>
<path d="M208.856 85.4297H152.213V91.4671H208.856V85.4297Z" fill="#407BFF"/>
<path opacity="0.3" d="M208.856 85.4297H152.213V91.4671H208.856V85.4297Z" fill="white"/>
<path d="M213.833 85.4297H208.856V91.4671H213.833V85.4297Z" fill="#407BFF"/>
<path opacity="0.5" d="M213.833 85.4297H208.856V91.4671H213.833V85.4297Z" fill="white"/>
<path d="M204.333 91.4668H161.485V127.363H204.333V91.4668Z" fill="#407BFF"/>
<path opacity="0.2" d="M204.333 91.4668H202.825V127.363H204.333V91.4668Z" fill="black"/>
<path d="M169.082 99.0547H175.842V100.718H171.838V102.085H175.26V103.648H171.838V106.81H169.092L169.082 99.0547Z" fill="white"/>
<path d="M176.961 102.937C176.895 102.398 176.969 101.852 177.174 101.341C177.38 100.829 177.714 100.364 178.151 99.9803C178.588 99.5961 179.117 99.3022 179.7 99.12C180.283 98.9378 180.905 98.8719 181.521 98.9271C182.138 98.8918 182.758 98.9656 183.342 99.1441C183.926 99.3225 184.463 99.6021 184.922 99.966C185.335 100.354 185.654 100.813 185.858 101.312C186.063 101.812 186.149 102.343 186.113 102.873C186.147 103.642 185.968 104.406 185.593 105.101C185.257 105.678 184.732 106.154 184.085 106.468C183.328 106.812 182.482 106.978 181.63 106.951C180.78 106.978 179.934 106.836 179.155 106.537C178.488 106.245 177.935 105.784 177.569 105.215C177.134 104.518 176.924 103.731 176.961 102.937ZM179.691 102.937C179.631 103.532 179.805 104.127 180.185 104.623C180.361 104.782 180.572 104.909 180.806 104.996C181.04 105.083 181.291 105.128 181.544 105.128C181.798 105.128 182.049 105.083 182.283 104.996C182.516 104.909 182.728 104.782 182.904 104.623C183.221 104.29 183.383 103.689 183.383 102.8C183.432 102.231 183.247 101.666 182.863 101.205C182.692 101.037 182.481 100.904 182.244 100.817C182.008 100.729 181.752 100.689 181.495 100.7C181.244 100.691 180.995 100.732 180.765 100.821C180.535 100.909 180.331 101.042 180.169 101.21C179.784 101.719 179.615 102.33 179.691 102.937Z" fill="white"/>
<path d="M187.631 106.795V99.0487H192.181C192.833 99.028 193.485 99.0925 194.115 99.2401C194.555 99.3614 194.935 99.6105 195.192 99.9463C195.475 100.316 195.619 100.754 195.602 101.199C195.62 101.575 195.52 101.948 195.312 102.277C195.105 102.606 194.799 102.88 194.427 103.068C194.129 103.213 193.806 103.316 193.47 103.373C193.721 103.438 193.959 103.534 194.178 103.66C194.342 103.779 194.488 103.915 194.614 104.065C194.759 104.216 194.888 104.377 194.999 104.548L196.32 106.79H193.236L191.791 104.43C191.667 104.205 191.489 104.007 191.271 103.847C191.075 103.729 190.843 103.667 190.605 103.669H190.361V106.808L187.631 106.795ZM190.371 102.193H191.526C191.77 102.176 192.011 102.141 192.248 102.088C192.426 102.057 192.583 101.969 192.69 101.842C192.807 101.712 192.867 101.551 192.862 101.386C192.868 101.278 192.847 101.17 192.801 101.07C192.754 100.97 192.683 100.881 192.592 100.807C192.28 100.642 191.914 100.572 191.552 100.607H190.35L190.371 102.193Z" fill="white"/>
<path d="M164.823 117.212L167.423 117.07C167.451 117.374 167.571 117.665 167.772 117.913C167.916 118.067 168.101 118.189 168.31 118.268C168.518 118.347 168.746 118.382 168.973 118.369C169.297 118.388 169.618 118.304 169.878 118.132C169.974 118.065 170.052 117.98 170.106 117.883C170.16 117.786 170.189 117.68 170.19 117.572C170.187 117.468 170.159 117.366 170.107 117.273C170.055 117.18 169.98 117.099 169.888 117.034C169.466 116.797 168.991 116.642 168.494 116.578C167.567 116.446 166.688 116.123 165.931 115.635C165.683 115.454 165.484 115.225 165.351 114.967C165.218 114.709 165.153 114.428 165.161 114.145C165.161 113.742 165.299 113.349 165.556 113.015C165.846 112.638 166.26 112.348 166.742 112.181C167.436 111.954 168.175 111.85 168.916 111.876C169.826 111.822 170.734 112.015 171.516 112.427C171.822 112.639 172.073 112.905 172.252 113.208C172.432 113.512 172.535 113.845 172.556 114.186L169.982 114.318C169.974 114.174 169.933 114.033 169.861 113.903C169.788 113.774 169.686 113.659 169.561 113.565C169.435 113.471 169.289 113.401 169.132 113.359C168.975 113.317 168.809 113.304 168.645 113.32C168.39 113.304 168.136 113.367 167.928 113.498C167.852 113.548 167.79 113.612 167.747 113.687C167.705 113.761 167.683 113.843 167.683 113.926C167.688 113.991 167.709 114.055 167.744 114.112C167.778 114.169 167.827 114.219 167.886 114.259C168.164 114.411 168.476 114.509 168.801 114.546C169.684 114.684 170.544 114.913 171.365 115.23C171.825 115.416 172.214 115.713 172.488 116.086C172.726 116.431 172.849 116.827 172.842 117.23C172.842 117.716 172.679 118.191 172.374 118.597C172.052 119.021 171.594 119.352 171.058 119.549C170.382 119.783 169.658 119.893 168.931 119.873C167.428 119.873 166.388 119.622 165.811 119.112C165.233 118.602 164.883 117.928 164.823 117.212Z" fill="white"/>
<path d="M179.643 118.498H176.523L176.092 119.773H173.305L176.627 112.027H179.602L182.951 119.796H180.091L179.643 118.498ZM179.077 116.821L178.104 114.041L177.137 116.821H179.077Z" fill="white"/>
<path d="M183.813 112.049H186.543V117.886H190.802V119.795H183.813V112.049Z" fill="white"/>
<path d="M192.035 112.049H199.352V113.703H194.776V114.933H199.024V116.514H194.776V118.041H199.487V119.795H192.035V112.049Z" fill="white"/>
<path d="M114.694 44.0459L113.909 44.9572C113.654 45.2443 113.389 45.5222 113.123 45.8002C112.603 46.3561 112.052 46.8938 111.501 47.4314C110.388 48.4931 109.234 49.5365 107.97 50.5299C106.685 51.5751 105.314 52.5361 103.867 53.405C103.071 53.8825 102.241 54.3147 101.382 54.6991C100.369 55.1548 99.2971 55.5006 98.189 55.7289L97.9654 55.7699C97.7723 55.808 97.5756 55.8309 97.3778 55.8382C96.3018 55.8659 95.2332 55.6724 94.2578 55.2732C93.5909 55.0046 92.9654 54.6632 92.3962 54.2571C91.5339 53.6415 90.7479 52.9481 90.051 52.1884C88.8781 50.9028 87.8342 49.5308 86.931 48.0876C86.0678 46.7206 85.3034 45.3263 84.6118 43.9183C83.9106 42.5135 83.2927 41.0778 82.7606 39.617C82.6007 39.1506 82.6324 38.6499 82.8502 38.2018C83.068 37.7538 83.4581 37.3869 83.9527 37.1647C84.4473 36.9426 85.015 36.8794 85.5573 36.9862C86.0995 37.0929 86.5819 37.3627 86.9206 37.7488L86.9674 37.8035C87.9294 38.9381 88.9018 40.1273 89.8794 41.2619C90.857 42.3965 91.8346 43.5402 92.8434 44.5927C93.7753 45.6098 94.7847 46.5703 95.8646 47.4679C96.275 47.817 96.7305 48.1228 97.2218 48.3792C97.3986 48.4612 97.5338 48.4931 97.5234 48.4703C97.513 48.4475 97.3154 48.3336 96.8422 48.3427L96.031 48.4521C96.392 48.2966 96.7395 48.1185 97.071 47.919C97.5078 47.6547 97.9966 47.3494 98.4802 47.0077C98.9638 46.6659 99.463 46.265 99.9518 45.8549C100.441 45.4448 100.945 45.0256 101.439 44.5882C102.417 43.6769 103.399 42.7656 104.356 41.8224L105.786 40.3825L107.159 38.97L107.289 38.8378C108.091 38.0137 109.228 37.4962 110.458 37.3955C111.688 37.2949 112.915 37.6191 113.877 38.2991C114.838 38.9791 115.459 39.9611 115.607 41.0362C115.755 42.1113 115.418 43.1944 114.668 44.055L114.694 44.0459Z" fill="#263238"/>
<path d="M86.8113 36.8654C86.5149 34.815 82.2665 33.8672 82.2665 33.8672L79.7861 32.9058C79.3796 32.747 78.9219 32.7203 78.4949 32.8306C78.068 32.9408 77.6999 33.1807 77.4565 33.5072L76.1929 35.2023C76.0598 35.3848 75.9689 35.5885 75.9256 35.8017C75.8823 36.015 75.8873 36.2336 75.9404 36.4452C75.9936 36.6568 76.0937 36.8571 76.2352 37.0347C76.3767 37.2124 76.5567 37.3638 76.7649 37.4805L79.0425 38.729C79.451 38.95 79.9082 39.0929 80.3841 39.1482L82.3185 39.3669C83.1314 39.459 83.9573 39.3468 84.7003 39.0435C85.4432 38.7402 86.0725 38.2582 86.5149 37.6537L86.6345 37.4942C86.7724 37.3079 86.8346 37.0864 86.8113 36.8654Z" fill="#FFB573"/>
<path d="M115.781 117.784C122.541 98.9789 127.788 76.0961 127.788 76.0961L107.43 74.3418C107.43 74.3418 106.094 103.786 104.83 116.827C103.509 130.382 98.3457 161.873 98.3457 161.873L104.534 162.328C104.534 162.328 115.157 134.62 115.781 117.784Z" fill="#263238"/>
<path d="M119.847 91.4609L122.676 95.8853C121.231 101.048 119.556 106.725 117.689 112.289C117.949 103.558 118.989 93.4886 119.847 91.4609Z" fill="black"/>
<path d="M90.0514 163.126C90.0514 163.126 98.803 162.497 99.6402 161.408L104.346 162.032L103.571 166.379L100.67 165.997L100.295 165.541L99.4894 165.846C97.1494 165.532 90.9094 164.63 89.5262 163.992C89.5187 163.82 89.5633 163.649 89.6556 163.497C89.7478 163.345 89.8844 163.217 90.0514 163.126Z" fill="#263238"/>
<path d="M135.567 116.531C135.208 97.198 136.607 84.2757 134.729 74.748L116.129 74.502C116.129 74.502 120.7 105.176 122.972 117.948C125.245 130.72 128.136 162.261 128.136 162.261H133.887C133.887 162.261 138.889 131.49 135.567 116.531Z" fill="#263238"/>
<path d="M122.499 164.927C122.499 164.927 128.017 163.163 128.739 161.979H133.503L133.144 166.38H129.254L128.833 165.975L128.063 166.38C125.687 166.38 123.508 166.298 122.052 165.829C122.035 165.658 122.067 165.486 122.146 165.328C122.224 165.171 122.345 165.033 122.499 164.927Z" fill="#263238"/>
<path d="M133.903 36.1681C127.325 35.4527 117.923 35.5211 111.621 36.4734C110.046 36.7231 108.602 37.4004 107.491 38.4096C106.38 39.4187 105.66 40.7085 105.433 42.0961C104.107 50.4346 105.246 65.0109 106.093 79.6829C120.487 83.9979 135.676 79.6236 135.676 79.6236C136.196 76.6619 135.021 66.9656 134.225 61.7894C135.416 56.4446 137.933 50.3207 139.597 43.2216C139.801 42.427 139.813 41.6036 139.631 40.8048C139.449 40.0059 139.078 39.2495 138.541 38.5845C138.004 37.9195 137.314 37.3607 136.515 36.9444C135.716 36.5282 134.826 36.2637 133.903 36.1681Z" fill="#263238"/>
<path d="M116.94 35.9127C116.15 36.6099 115.624 37.708 115.344 39.1023C114.668 42.4878 115.432 47.705 117.47 53.6832C119.42 48.8624 123.617 42.4832 126.196 38.7788C127.418 37.0245 128.276 35.8626 128.349 35.7624C124.588 35.0002 120.673 35.0518 116.94 35.9127Z" fill="#E0E0E0"/>
<path d="M127.392 25.1543L119.899 30.5401C120.872 32.7956 121.178 35.1467 116.946 36.0535C115.906 37.2792 117.757 38.6826 119.504 39.3205C122.328 39.0152 126.311 38.1905 128.032 36.131C127.486 34.4906 126.664 28.4942 127.392 25.1543Z" fill="#FFB573"/>
<path d="M117.715 37.9634C118.031 38.7505 118.567 39.4555 119.275 40.0138C120.419 40.0138 122.088 38.8883 122.088 38.8883C122.088 38.8883 121.443 37.2981 120.528 36.9746C118.214 37.4758 117.715 37.9634 117.715 37.9634Z" fill="#407BFF"/>
<path d="M120.325 39.3259C120.147 39.2057 119.944 39.1187 119.726 39.0701C119.509 39.0215 119.283 39.0124 119.061 39.0434C117.564 40.907 116.612 43.8049 115.687 47.1494C116.131 49.3704 116.726 51.566 117.47 53.7245C118.304 51.7405 119.277 49.8034 120.382 47.924C119.955 45.0712 119.936 42.1828 120.325 39.3259Z" fill="#407BFF"/>
<path opacity="0.2" d="M124.266 27.4023L119.903 30.5372C120.137 31.0602 120.311 31.602 120.423 32.1548C122.113 32.2596 124.464 30.7605 124.583 29.4209C124.62 28.7367 124.513 28.0524 124.266 27.4023Z" fill="black"/>
<path d="M116.81 15.7318C113.545 18.5523 115.687 23.0633 115.687 23.0633C115.687 23.0633 121.397 14.137 116.81 15.7318Z" fill="#263238"/>
<path d="M128.464 21.4864C127.783 25.5873 127.622 28.0432 125.032 29.9752C121.137 32.8823 115.485 30.5174 114.746 26.2935C114.086 22.4888 115.313 16.3968 120.097 15.1209C121.156 14.8387 122.28 14.7967 123.363 14.9989C124.446 15.201 125.453 15.6408 126.289 16.2768C127.125 16.9129 127.763 17.7246 128.143 18.6357C128.524 19.5469 128.634 20.5277 128.464 21.4864Z" fill="#FFB573"/>
<path d="M128.99 23.597C125.469 24.2303 124.45 21.8427 124.45 21.8427C125.163 21.9727 125.9 21.9727 126.613 21.8427C126.613 21.8427 124.242 19.7194 126.093 17.6644C125.126 16.7531 120.82 17.145 118.813 17.6644C116.619 16.9399 115.49 16.6027 114.32 14.3199C115.402 14.484 116.515 14.3635 117.518 13.9736C119.702 13.0942 116.426 12.4472 116.426 12.4472C118.938 11.5869 121.659 11.3061 124.33 11.6316C129.426 12.2604 130.217 13.5863 130.019 15.09C132.687 15.0626 132.952 17.6644 132.952 17.6644C132.628 17.4368 132.246 17.2806 131.839 17.2088C131.99 18.0016 132.51 22.6538 128.99 23.597Z" fill="#263238"/>
<path d="M129.295 15.3953C130.273 15.008 130.569 12.9621 129.992 12.1055C132.607 14.5387 130.72 15.532 129.295 15.3953Z" fill="#263238"/>
<path d="M130.055 24.6806C129.837 25.1127 129.524 25.5027 129.133 25.828C128.742 26.1534 128.281 26.4076 127.777 26.5761C126.42 27.0318 125.609 25.9838 125.874 24.8082C126.113 23.7465 127.107 22.2429 128.521 22.3067C128.829 22.3243 129.128 22.4089 129.389 22.5527C129.651 22.6966 129.867 22.8952 130.02 23.1307C130.172 23.3662 130.255 23.6311 130.261 23.9017C130.267 24.1723 130.196 24.4399 130.055 24.6806Z" fill="#FFB573"/>
<path d="M121.87 21.6367C121.839 21.9739 121.605 22.229 121.35 22.2108C121.095 22.1926 120.919 21.901 120.955 21.5638C120.991 21.2266 121.215 20.9669 121.475 20.9897C121.735 21.0125 121.901 21.2995 121.87 21.6367Z" fill="#263238"/>
<path d="M117.268 21.5366C117.236 21.8738 117.008 22.1335 116.748 22.1107C116.488 22.088 116.321 21.8009 116.352 21.4637C116.384 21.1265 116.612 20.8714 116.872 20.8896C117.132 20.9078 117.299 21.1994 117.268 21.5366Z" fill="#263238"/>
<path d="M118.199 21.9922C118.199 21.9922 117.159 23.8649 116.088 24.7261C116.717 25.3367 117.897 25.1818 117.897 25.1818L118.199 21.9922Z" fill="#ED893E"/>
<path d="M122.987 20.6261C123.025 20.6331 123.064 20.6331 123.102 20.6261C123.13 20.6166 123.155 20.6023 123.177 20.584C123.198 20.5656 123.215 20.5437 123.227 20.5195C123.239 20.4952 123.245 20.4692 123.244 20.4429C123.244 20.4166 123.238 20.3906 123.226 20.3664C123.097 20.0672 122.888 19.7993 122.617 19.5853C122.346 19.3713 122.02 19.2173 121.666 19.1361C121.608 19.1267 121.548 19.1376 121.498 19.1665C121.449 19.1954 121.414 19.2401 121.401 19.2911C121.389 19.343 121.401 19.3971 121.434 19.4416C121.467 19.486 121.519 19.5171 121.578 19.528C121.854 19.596 122.108 19.7207 122.317 19.8919C122.527 20.0631 122.687 20.2758 122.784 20.5122C122.802 20.5462 122.831 20.575 122.867 20.5951C122.903 20.6153 122.945 20.6261 122.987 20.6261Z" fill="#263238"/>
<path d="M115.125 20.252C115.161 20.2632 115.199 20.2665 115.236 20.2617C115.273 20.257 115.308 20.2443 115.339 20.2247C115.561 20.07 115.822 19.9641 116.101 19.9157C116.379 19.8674 116.667 19.878 116.94 19.9468C116.968 19.9562 116.998 19.9605 117.028 19.9596C117.058 19.9587 117.087 19.9526 117.114 19.9415C117.141 19.9305 117.166 19.9148 117.186 19.8953C117.206 19.8759 117.221 19.8531 117.231 19.8283C117.252 19.7787 117.249 19.7242 117.223 19.6764C117.198 19.6287 117.152 19.5916 117.096 19.5731C116.753 19.4814 116.389 19.4637 116.036 19.5217C115.683 19.5796 115.351 19.7113 115.068 19.9057C115.036 19.9274 115.011 19.9563 114.995 19.9893C114.98 20.0223 114.975 20.0583 114.981 20.0936C114.987 20.1289 115.003 20.1622 115.029 20.19C115.054 20.2179 115.087 20.2393 115.125 20.252Z" fill="#263238"/>
<path d="M128.349 35.7773C128.271 35.8776 127.418 37.0395 126.196 38.7938C124.968 39.7893 123.461 40.4825 121.828 40.8032C122.068 40.0969 121.345 37.7048 120.544 36.9666C122.432 37.0623 125.032 36.7798 128.349 35.7773Z" fill="#FAFAFA"/>
<path d="M120.55 36.9738C119.685 37.306 118.906 37.7881 118.26 38.3911C117.614 38.9941 117.114 39.7054 116.79 40.4823C116.457 40.3545 116.157 40.1668 115.912 39.9313C115.667 39.6959 115.48 39.4179 115.365 39.1153C115.646 37.7074 116.171 36.6093 116.962 35.9258C117.383 36.4088 118.574 36.8644 120.55 36.9738Z" fill="#FAFAFA"/>
<path d="M139.612 40.1967C139.997 40.9303 140.319 41.5636 140.652 42.279C140.985 42.9944 141.276 43.646 141.578 44.3568C142.16 45.7511 142.706 47.1636 143.185 48.6217C143.688 50.105 144.102 51.6108 144.422 53.1326C144.589 53.9164 144.729 54.7274 144.823 55.584C144.922 56.5218 144.934 57.4651 144.859 58.4045C144.631 60.2964 143.96 62.1267 142.888 63.7812C141.997 65.2023 140.952 66.545 139.768 67.791C138.654 68.9708 137.457 70.0892 136.185 71.14C134.926 72.1844 133.588 73.154 132.181 74.0425C131.728 74.326 131.175 74.4609 130.619 74.4236C130.064 74.3862 129.541 74.179 129.142 73.8382C128.743 73.4973 128.494 73.0445 128.437 72.5588C128.381 72.0731 128.52 71.5855 128.833 71.181L128.911 71.0853L130.216 69.404C130.658 68.839 131.079 68.2603 131.5 67.6862C132.327 66.5425 133.133 65.4079 133.825 64.2414C134.513 63.1539 135.105 62.0221 135.598 60.8559C135.814 60.345 135.987 59.8212 136.118 59.2885C136.225 58.8809 136.268 58.4624 136.248 58.0446C136.209 57.5588 136.131 57.0761 136.014 56.6001C135.889 56.0442 135.738 55.4519 135.551 54.8459C135.166 53.6339 134.709 52.3762 134.209 51.1141C133.71 49.8519 133.169 48.5807 132.613 47.3094L130.928 43.532L130.887 43.4455C130.442 42.4382 130.462 41.3189 130.942 40.3243C131.423 39.3297 132.325 38.5377 133.46 38.1158C134.594 37.6939 135.872 37.6751 137.022 38.0634C138.172 38.4517 139.105 39.2167 139.623 40.1967H139.612Z" fill="#263238"/>
<path d="M111.734 61.667C109.646 63.0892 108.239 65.1442 107.791 67.4284C107.343 69.7127 107.885 72.0612 109.312 74.0131C110.738 75.965 112.945 77.3792 115.501 77.9781C118.056 78.5771 120.774 78.3175 123.122 77.2503L124.422 78.7084L124.183 79.6197L126.944 82.7318L128.452 82.7591L128.042 84.2947L133.46 90.4004L136.372 90.446L137.35 91.5532L136.866 93.3758L140.459 97.422L143.506 97.4722L144.026 94.6061L126.508 74.8718C128.149 73.1 128.99 70.8605 128.868 68.5806C128.746 66.3007 127.67 64.1399 125.847 62.5103C124.023 60.8807 121.579 59.8964 118.98 59.7451C116.381 59.5937 113.809 60.286 111.755 61.6898L111.734 61.667ZM116.217 66.7156C115.796 67.0036 115.287 67.1757 114.755 67.2102C114.222 67.2447 113.69 67.14 113.226 66.9094C112.761 66.6788 112.385 66.3326 112.145 65.9147C111.905 65.4968 111.812 65.0259 111.877 64.5616C111.943 64.0973 112.164 63.6605 112.513 63.3063C112.862 62.9522 113.323 62.6967 113.837 62.5722C114.352 62.4477 114.897 62.4598 115.404 62.6068C115.911 62.7539 116.357 63.0294 116.685 63.3985C117.124 63.8929 117.322 64.5199 117.234 65.1419C117.146 65.7639 116.78 66.3299 116.217 66.7156Z" fill="#407BFF"/>
<path d="M132.832 73.1443C132.763 72.9243 132.606 72.7334 132.39 72.6067L130.554 71.4949C130.378 71.3878 130.171 71.3264 129.957 71.3175C129.742 71.3087 129.53 71.3527 129.343 71.4447L127.694 72.2695C126.092 73.0644 124.703 74.1522 123.623 75.459L123.264 75.9147C123.118 76.0925 123.015 76.294 122.959 76.5074C122.904 76.7208 122.897 76.9417 122.94 77.1573C122.983 77.3728 123.075 77.5787 123.21 77.7628C123.345 77.9469 123.521 78.1055 123.727 78.2294L125.63 79.3777C125.997 79.5984 126.442 79.6976 126.885 79.6576C127.328 79.6175 127.74 79.4408 128.048 79.1589L129.91 77.4183C129.91 77.4183 133.446 75.1401 132.832 73.1443Z" fill="#FFB573"/>
<path d="M129.447 70.584C128.632 70.8859 127.875 71.2946 127.2 71.796C127.439 73.0764 131.511 75.2089 132.884 75.2362C133.44 74.7805 134.173 72.9078 134.173 72.9078C132.634 72.3246 130.559 71.0396 129.447 70.584Z" fill="#E0E0E0"/>
<path d="M87.7901 38.6875C87.8082 37.9173 87.6925 37.149 87.4469 36.4093C86.0169 36.0721 82.1325 38.4597 81.5449 39.5533C81.7997 40.1866 83.4377 41.5308 83.4377 41.5308C84.6701 40.5101 86.8541 39.371 87.7901 38.6875Z" fill="#E0E0E0"/>
<path d="M127.798 162.402L134.184 162.561L134.849 159.381L127.377 159.773L127.798 162.402Z" fill="#407BFF"/>
<path d="M98.0449 161.832L104.873 162.757L106.027 160.114L98.4609 158.615L98.0449 161.832Z" fill="#407BFF"/>
<path d="M119.675 26.3857C119.429 26.395 119.181 26.3843 118.937 26.3538C118.921 26.3516 118.905 26.3465 118.891 26.3388C118.877 26.3311 118.865 26.3209 118.856 26.309C118.846 26.297 118.84 26.2834 118.837 26.2692C118.834 26.2549 118.834 26.2403 118.838 26.2262C118.846 26.1956 118.866 26.1686 118.894 26.1501C118.923 26.1316 118.959 26.123 118.994 26.1259C119.545 26.1976 120.107 26.159 120.639 26.013C121.17 25.867 121.657 25.6174 122.062 25.283C122.087 25.2618 122.121 25.25 122.156 25.25C122.191 25.25 122.224 25.2618 122.249 25.283C122.273 25.3043 122.286 25.3329 122.286 25.3627C122.286 25.3925 122.273 25.4212 122.249 25.4425C121.554 26.0253 120.637 26.3614 119.675 26.3857Z" fill="#263238"/>
<path d="M101.785 9.73125L86.0546 8.62402L72.6958 2.81445L58.0526 6.65104L55.9414 29.6843L99.6734 32.7645L101.785 9.73125Z" fill="#407BFF"/>
<path d="M51.4114 31.9215L44.4902 31.4339L45.3586 21.9746L46.1854 22.0338L45.3846 30.7687L51.479 31.197L51.4114 31.9215Z" fill="#407BFF"/>
<path d="M54.6779 31.2397L54.6113 31.9688L60.0193 32.3479L60.0859 31.6188L54.6779 31.2397Z" fill="#407BFF"/>
<path d="M58.3298 21.3412L48.3936 20.6406L47.617 29.0975L57.5533 29.7981L58.3298 21.3412Z" fill="#407BFF"/>
<path opacity="0.2" d="M57.5576 29.7983L66.2728 30.4134L67.3284 18.8945L58.3324 21.3368L57.5576 29.7983Z" fill="black"/>
<path opacity="0.2" d="M101.784 9.74189L86.0527 8.63281L83.938 31.6645L99.6691 32.7736L101.784 9.74189Z" fill="black"/>
<path d="M88.4253 3.92169L72.6953 2.81445L86.0541 8.62402L101.784 9.73125L88.4253 3.92169Z" fill="#263238"/>
<path d="M101.784 10.4607H101.716L85.9865 9.35343C85.8814 9.3437 85.7793 9.31745 85.6849 9.27596L72.326 3.4664C72.153 3.39104 72.0152 3.26524 71.9365 3.11059C71.8577 2.95594 71.8429 2.78209 71.8944 2.61889C71.9476 2.4563 72.0628 2.31463 72.2209 2.21759C72.379 2.12055 72.5703 2.07401 72.7629 2.08577L88.4929 3.19301C88.5996 3.20269 88.7034 3.22892 88.7997 3.27047L102.153 9.07092C102.312 9.14782 102.439 9.26828 102.512 9.4139C102.586 9.55952 102.603 9.72228 102.561 9.87729C102.519 10.0323 102.421 10.171 102.28 10.2723C102.14 10.3735 101.966 10.4317 101.784 10.4379V10.4607ZM86.2776 7.90901L97.5513 8.7064L88.1913 4.63742L76.9177 3.84003L86.2776 7.90901Z" fill="#263238"/>
<path d="M57.3964 18.1973L67.3284 18.8944L58.3324 21.3367L48.4004 20.6396L57.3964 18.1973Z" fill="#263238"/>
<path d="M58.3318 21.8006H58.2902L48.353 21.0989C48.2309 21.0908 48.116 21.0453 48.0285 20.9702C47.941 20.8952 47.8865 20.7956 47.8746 20.6888C47.8623 20.5794 47.8955 20.4699 47.9681 20.3803C48.0408 20.2907 48.1479 20.2271 48.2698 20.2012L57.2658 17.7544C57.331 17.7433 57.3981 17.7433 57.4634 17.7544L67.3954 18.4561C67.5176 18.463 67.6331 18.5074 67.7215 18.5816C67.81 18.6558 67.8658 18.755 67.879 18.8616C67.8938 18.9687 67.8649 19.0769 67.7973 19.167C67.7297 19.2571 67.6278 19.3233 67.5098 19.3537L58.5138 21.796C58.4539 21.8069 58.3923 21.8085 58.3318 21.8006ZM51.1558 20.3698L58.2746 20.8711L64.5718 19.1624L57.453 18.6611L51.1558 20.3698Z" fill="#263238"/>
<path d="M58.4529 7.4076C58.2559 7.40553 58.0661 7.34226 57.9173 7.22907C57.7686 7.11587 57.6705 6.9601 57.6405 6.78947C57.6106 6.61884 57.6507 6.44444 57.7537 6.2973C57.8568 6.15016 58.0161 6.03984 58.2033 5.98597L72.4513 2.11748C72.5592 2.06688 72.6785 2.03777 72.8008 2.03222C72.923 2.02668 73.0452 2.04485 73.1585 2.08542C73.2718 2.126 73.3735 2.18798 73.4563 2.26696C73.5392 2.34593 73.6011 2.43995 73.6377 2.54231C73.6743 2.64467 73.6847 2.75284 73.6681 2.85912C73.6515 2.96539 73.6083 3.06715 73.5417 3.15713C73.4751 3.24711 73.3866 3.3231 73.2826 3.37968C73.1786 3.43625 73.0616 3.47203 72.9401 3.48444L58.6973 7.35293C58.6195 7.38207 58.537 7.40051 58.4529 7.4076Z" fill="#263238"/>
<path opacity="0.6" d="M78.1198 22.2848L72.4414 21.8867L71.6148 30.9405L77.2932 31.3386L78.1198 22.2848Z" fill="white"/>
<path d="M78.6495 10.9247L65.3389 9.98633L64.695 16.9989L78.0056 17.9374L78.6495 10.9247Z" fill="white"/>
<path d="M71.3931 10.8814L65.79 10.4863L65.2312 16.5724L70.8343 16.9674L71.3931 10.8814Z" fill="#407BFF"/>
<path d="M78.1148 11.356L72.5117 10.9609L71.9529 17.047L77.556 17.442L78.1148 11.356Z" fill="#407BFF"/>
<path d="M97.5688 12.2627L90.1309 11.7383L89.487 18.7509L96.9249 19.2753L97.5688 12.2627Z" fill="white"/>
<path d="M93.4901 12.4434L90.3594 12.2227L89.8005 18.3087L92.9312 18.5294L93.4901 12.4434Z" fill="#407BFF"/>
<path d="M97.244 12.7051L94.1133 12.4844L93.5545 18.5704L96.6851 18.7912L97.244 12.7051Z" fill="#407BFF"/>
<path d="M96.5356 23.4677L89.0977 22.9434L88.4538 29.956L95.8917 30.4804L96.5356 23.4677Z" fill="white"/>
<path d="M92.4569 23.6485L89.3262 23.4277L88.7673 29.5138L91.898 29.7345L92.4569 23.6485Z" fill="#407BFF"/>
<path d="M96.5353 24.0502L93.3945 23.8301L92.8371 29.9358L95.9779 30.156L96.5353 24.0502Z" fill="#407BFF"/>
</svg>
