<svg width="235" height="222" viewBox="0 0 235 222" fill="none" xmlns="http://www.w3.org/2000/svg">
<path d="M155.946 24.9706C155.946 24.9706 119.91 12.8731 84.5478 32.1355C49.1857 51.3978 31.3175 89.6352 16.0092 120.275C0.700928 150.914 9.50401 182.066 36.5029 196.272C63.5019 210.478 81.8615 189.527 119.737 188.515C157.612 187.503 167.796 192.621 199.227 172.404C230.657 152.187 236.334 104.473 211.544 69.1618C186.754 33.8504 155.946 24.9706 155.946 24.9706Z" fill="#3566B1"/>
<path opacity="0.7" d="M155.946 24.9706C155.946 24.9706 119.91 12.8731 84.5478 32.1355C49.1857 51.3978 31.3175 89.6352 16.0092 120.275C0.700928 150.914 9.50401 182.066 36.5029 196.272C63.5019 210.478 81.8615 189.527 119.737 188.515C157.612 187.503 167.796 192.621 199.227 172.404C230.657 152.187 236.334 104.473 211.544 69.1618C186.754 33.8504 155.946 24.9706 155.946 24.9706Z" fill="white"/>
<path d="M4.68359 205.672H229.749" stroke="#263238" stroke-linecap="round" stroke-linejoin="round"/>
<path d="M195.716 18.4941H197.457C205.153 18.4941 212.533 21.3813 217.975 26.5206C223.416 31.6598 226.473 38.6301 226.473 45.8981V148.212H166.7V45.8981C166.7 38.6301 169.757 31.6598 175.199 26.5206C180.64 21.3813 188.021 18.4941 195.716 18.4941Z" stroke="#263238" stroke-linecap="round" stroke-linejoin="round"/>
<path d="M173.449 147.908V47.6449C173.449 41.8505 175.886 36.2933 180.225 32.196C184.563 28.0987 190.447 25.7969 196.582 25.7969C199.62 25.7969 202.628 26.362 205.434 27.46C208.241 28.5581 210.791 30.1675 212.938 32.1963C215.086 34.2251 216.79 36.6337 217.952 39.2844C219.114 41.9351 219.712 44.776 219.711 47.6449V147.908" stroke="#263238" stroke-linecap="round" stroke-linejoin="round"/>
<path d="M196.582 18.4941V148.058" stroke="#263238" stroke-linecap="round" stroke-linejoin="round"/>
<path d="M167.023 43.4531H226.057" stroke="#263238" stroke-linecap="round" stroke-linejoin="round"/>
<path d="M167.023 61.0508H226.057" stroke="#263238" stroke-linecap="round" stroke-linejoin="round"/>
<path d="M167.023 78.6504H226.057" stroke="#263238" stroke-linecap="round" stroke-linejoin="round"/>
<path d="M167.023 96.25H226.057" stroke="#263238" stroke-linecap="round" stroke-linejoin="round"/>
<path d="M167.023 113.848H226.057" stroke="#263238" stroke-linecap="round" stroke-linejoin="round"/>
<path d="M167.023 131.447H226.057" stroke="#263238" stroke-linecap="round" stroke-linejoin="round"/>
<path d="M174.919 27.3027L180.273 31.9084" stroke="#263238" stroke-linecap="round" stroke-linejoin="round"/>
<path d="M218.022 27.3027L212.668 31.9084" stroke="#263238" stroke-linecap="round" stroke-linejoin="round"/>
<path d="M153.699 114.496H165.249" stroke="#263238" stroke-linecap="round" stroke-linejoin="round"/>
<path d="M153.934 121.016H160.018V155.346H190.906V200.576H153.662" stroke="#263238" stroke-linecap="round" stroke-linejoin="round"/>
<path d="M230.409 155.346H198.407V200.576H227.877" stroke="#263238" stroke-linecap="round" stroke-linejoin="round"/>
<path d="M153.663 12.9609H72.502V205.673H153.663V12.9609Z" stroke="#263238" stroke-miterlimit="10"/>
<path d="M152.335 109.374C153.031 107.702 152.16 105.813 150.39 105.155C148.62 104.498 146.62 105.32 145.924 106.992C145.228 108.664 146.098 110.553 147.869 111.21C149.639 111.868 151.638 111.045 152.335 109.374Z" stroke="#263238" stroke-miterlimit="10"/>
<path d="M150.508 108.198C150.508 107.941 150.427 107.688 150.276 107.474C150.124 107.26 149.908 107.092 149.656 106.994C149.404 106.895 149.126 106.869 148.858 106.92C148.591 106.97 148.345 107.094 148.151 107.276C147.958 107.459 147.827 107.691 147.774 107.944C147.72 108.197 147.748 108.459 147.852 108.697C147.957 108.936 148.134 109.139 148.361 109.283C148.588 109.426 148.855 109.502 149.128 109.502C149.309 109.503 149.489 109.47 149.657 109.404C149.825 109.339 149.977 109.243 150.105 109.122C150.234 109.001 150.335 108.857 150.404 108.698C150.474 108.54 150.509 108.37 150.508 108.198Z" stroke="#263238" stroke-miterlimit="10"/>
<path d="M109.942 21.6113H79.9902V53.6254H109.942V21.6113Z" stroke="#263238" stroke-miterlimit="10"/>
<path d="M106.483 25.3105H83.4482V49.9299H106.483V25.3105Z" stroke="#263238" stroke-miterlimit="10"/>
<path d="M79.9902 21.6113L83.4488 25.3109" stroke="#263238" stroke-miterlimit="10"/>
<path d="M83.4488 49.9297L79.9902 53.6248" stroke="#263238" stroke-miterlimit="10"/>
<path d="M106.483 49.9297L109.942 53.6248" stroke="#263238" stroke-miterlimit="10"/>
<path d="M109.942 21.6113L106.483 25.3109" stroke="#263238" stroke-miterlimit="10"/>
<path d="M109.942 56.5293H79.9902V88.5434H109.942V56.5293Z" stroke="#263238" stroke-miterlimit="10"/>
<path d="M106.483 60.2285H83.4482V84.8479H106.483V60.2285Z" stroke="#263238" stroke-miterlimit="10"/>
<path d="M79.9902 56.5293L83.4488 60.2288" stroke="#263238" stroke-miterlimit="10"/>
<path d="M83.4488 84.8477L79.9902 88.5428" stroke="#263238" stroke-miterlimit="10"/>
<path d="M106.483 84.8477L109.942 88.5428" stroke="#263238" stroke-miterlimit="10"/>
<path d="M109.942 56.5293L106.483 60.2288" stroke="#263238" stroke-miterlimit="10"/>
<path d="M109.942 91.4473H79.9902V123.461H109.942V91.4473Z" stroke="#263238" stroke-miterlimit="10"/>
<path d="M106.483 95.1465H83.4482V119.766H106.483V95.1465Z" stroke="#263238" stroke-miterlimit="10"/>
<path d="M79.9902 91.4473L83.4488 95.1468" stroke="#263238" stroke-miterlimit="10"/>
<path d="M83.4488 119.766L79.9902 123.461" stroke="#263238" stroke-miterlimit="10"/>
<path d="M106.483 119.766L109.942 123.461" stroke="#263238" stroke-miterlimit="10"/>
<path d="M109.942 91.4473L106.483 95.1468" stroke="#263238" stroke-miterlimit="10"/>
<path d="M109.942 126.365H79.9902V158.379H109.942V126.365Z" stroke="#263238" stroke-miterlimit="10"/>
<path d="M106.483 130.064H83.4482V154.684H106.483V130.064Z" stroke="#263238" stroke-miterlimit="10"/>
<path d="M79.9902 126.365L83.4488 130.065" stroke="#263238" stroke-miterlimit="10"/>
<path d="M83.4488 154.684L79.9902 158.379" stroke="#263238" stroke-miterlimit="10"/>
<path d="M106.483 154.684L109.942 158.379" stroke="#263238" stroke-miterlimit="10"/>
<path d="M109.942 126.365L106.483 130.065" stroke="#263238" stroke-miterlimit="10"/>
<path d="M109.942 165.008H79.9902V197.022H109.942V165.008Z" stroke="#263238" stroke-miterlimit="10"/>
<path d="M106.483 168.707H83.4482V193.326H106.483V168.707Z" stroke="#263238" stroke-miterlimit="10"/>
<path d="M79.9902 165.008L83.4488 168.707" stroke="#263238" stroke-miterlimit="10"/>
<path d="M83.4488 193.328L79.9902 197.023" stroke="#263238" stroke-miterlimit="10"/>
<path d="M106.483 193.328L109.942 197.023" stroke="#263238" stroke-miterlimit="10"/>
<path d="M109.942 165.01L106.483 168.709" stroke="#263238" stroke-miterlimit="10"/>
<path d="M144.106 21.6113H114.154V53.6254H144.106V21.6113Z" stroke="#263238" stroke-miterlimit="10"/>
<path d="M140.647 25.3105H117.612V49.9299H140.647V25.3105Z" stroke="#263238" stroke-miterlimit="10"/>
<path d="M114.154 21.6113L117.613 25.3109" stroke="#263238" stroke-miterlimit="10"/>
<path d="M117.613 49.9297L114.154 53.6248" stroke="#263238" stroke-miterlimit="10"/>
<path d="M140.647 49.9297L144.106 53.6248" stroke="#263238" stroke-miterlimit="10"/>
<path d="M144.106 21.6113L140.647 25.3109" stroke="#263238" stroke-miterlimit="10"/>
<path d="M144.106 56.5293H114.154V88.5434H144.106V56.5293Z" stroke="#263238" stroke-miterlimit="10"/>
<path d="M140.647 60.2285H117.612V84.8479H140.647V60.2285Z" stroke="#263238" stroke-miterlimit="10"/>
<path d="M114.154 56.5293L117.613 60.2288" stroke="#263238" stroke-miterlimit="10"/>
<path d="M117.613 84.8477L114.154 88.5428" stroke="#263238" stroke-miterlimit="10"/>
<path d="M140.647 84.8477L144.106 88.5428" stroke="#263238" stroke-miterlimit="10"/>
<path d="M144.106 56.5293L140.647 60.2288" stroke="#263238" stroke-miterlimit="10"/>
<path d="M144.106 91.4473H114.154V123.461H144.106V91.4473Z" stroke="#263238" stroke-miterlimit="10"/>
<path d="M140.647 95.1465H117.612V119.766H140.647V95.1465Z" stroke="#263238" stroke-miterlimit="10"/>
<path d="M114.154 91.4473L117.613 95.1468" stroke="#263238" stroke-miterlimit="10"/>
<path d="M117.613 119.766L114.154 123.461" stroke="#263238" stroke-miterlimit="10"/>
<path d="M140.647 119.766L144.106 123.461" stroke="#263238" stroke-miterlimit="10"/>
<path d="M144.106 91.4473L140.647 95.1468" stroke="#263238" stroke-miterlimit="10"/>
<path d="M144.106 126.365H114.154V158.379H144.106V126.365Z" stroke="#263238" stroke-miterlimit="10"/>
<path d="M140.647 130.064H117.612V154.684H140.647V130.064Z" stroke="#263238" stroke-miterlimit="10"/>
<path d="M114.154 126.365L117.613 130.065" stroke="#263238" stroke-miterlimit="10"/>
<path d="M117.613 154.684L114.154 158.379" stroke="#263238" stroke-miterlimit="10"/>
<path d="M140.647 154.684L144.106 158.379" stroke="#263238" stroke-miterlimit="10"/>
<path d="M144.106 126.365L140.647 130.065" stroke="#263238" stroke-miterlimit="10"/>
<path d="M144.106 165.008H114.154V197.022H144.106V165.008Z" stroke="#263238" stroke-miterlimit="10"/>
<path d="M140.647 168.707H117.612V193.326H140.647V168.707Z" stroke="#263238" stroke-miterlimit="10"/>
<path d="M114.154 165.008L117.613 168.707" stroke="#263238" stroke-miterlimit="10"/>
<path d="M117.613 193.328L114.154 197.023" stroke="#263238" stroke-miterlimit="10"/>
<path d="M140.647 193.328L144.106 197.023" stroke="#263238" stroke-miterlimit="10"/>
<path d="M144.106 165.01L140.647 168.709" stroke="#263238" stroke-miterlimit="10"/>
<path d="M9.1581 12.9609H6.0459" stroke="#263238" stroke-miterlimit="10"/>
<path d="M72.502 12.9609H11.9521" stroke="#263238" stroke-miterlimit="10"/>
<path d="M58.696 49.3107H45.5125L42.6904 27.6836H61.5181L58.696 49.3107Z" stroke="#263238" stroke-width="2" stroke-miterlimit="10"/>
<path d="M64.5176 27.6263H39.6855L47.9645 24.0195H56.2434L64.5176 27.6263Z" fill="#263238" stroke="#263238" stroke-miterlimit="10"/>
<path d="M47.7253 49.2228L45.8486 27.8477" stroke="#263238" stroke-width="2" stroke-miterlimit="10"/>
<path d="M56.749 49.2228L58.7427 27.8477" stroke="#263238" stroke-width="2" stroke-miterlimit="10"/>
<path d="M45.2314 47.1406L45.5122 49.3108H58.6958L58.9766 47.1406H45.2314Z" fill="#263238" stroke="#263238" stroke-miterlimit="10"/>
<path d="M54.479 19.5117H49.916V24.3826H54.479V19.5117Z" fill="#263238" stroke="#263238" stroke-miterlimit="10"/>
<path d="M72.3702 20.2617H53.7812V21.1988H72.3702V20.2617Z" fill="#263238" stroke="#263238" stroke-miterlimit="10"/>
<path d="M57.6239 131.793H16.1357V167.387H57.6239V131.793Z" stroke="#263238" stroke-miterlimit="10"/>
<path d="M53.201 134.197H20.5674V164.978H53.201V134.197Z" fill="#3566B1"/>
<path d="M16.1357 130.533V205.66" stroke="#263238" stroke-width="2" stroke-linejoin="round"/>
<path d="M57.7734 130.533V205.66" stroke="#263238" stroke-width="2" stroke-linejoin="round"/>
<path d="M28.6735 141.668H31.4207V143.493H28.6735V148.771H26.5488V135.988H32.1648V137.814H28.6735V141.668Z" fill="white"/>
<path d="M33.0254 139.055C33.0254 137.009 34.1673 135.842 36.2546 135.842C38.3419 135.842 39.4838 137.009 39.4838 139.055V145.685C39.4838 147.732 38.3419 148.898 36.2546 148.898C34.1673 148.898 33.0254 147.732 33.0254 145.685V139.055ZM35.1501 145.831C35.1501 146.742 35.576 147.091 36.2546 147.091C36.9332 147.091 37.3544 146.742 37.3544 145.831V138.927C37.3544 138.012 36.9332 137.667 36.2546 137.667C35.576 137.667 35.1501 138.012 35.1501 138.927V145.831Z" fill="white"/>
<path d="M45.3015 148.771C45.1278 148.265 45.0626 147.732 45.1096 147.202V145.191C45.1096 144.006 44.6837 143.569 43.7056 143.569H42.9849V148.771H40.8555V135.988H44.0659C46.2702 135.988 47.2156 136.956 47.2156 138.928V139.931C47.2156 141.257 46.7476 142.106 45.8116 142.525C46.874 142.945 47.2156 143.913 47.2156 145.248V147.22C47.177 147.746 47.2551 148.274 47.4449 148.771H45.3015ZM42.9849 137.814V141.739H43.8132C44.6088 141.739 45.0909 141.412 45.0909 140.391V139.14C45.0909 138.225 44.7633 137.814 44.0098 137.814H42.9849Z" fill="white"/>
<path d="M26.0666 150.6C28.1352 150.6 29.1975 151.766 29.1975 153.813V154.215H27.1851V153.685C27.1851 152.77 26.8014 152.425 26.1228 152.425C25.4442 152.425 25.0604 152.77 25.0604 153.685C25.0604 156.315 29.2162 156.805 29.2162 160.461C29.2162 162.507 28.1352 163.674 26.0479 163.674C23.9606 163.674 22.8936 162.507 22.8936 160.461V159.674H24.906V160.589C24.906 161.499 25.3272 161.831 26.0058 161.831C26.6844 161.831 27.1102 161.499 27.1102 160.589C27.1102 157.959 22.9497 157.464 22.9497 153.813C22.931 151.766 23.998 150.6 26.0666 150.6Z" fill="white"/>
<path d="M37.317 163.529H35.1735L34.8038 161.208H32.1924L31.8273 163.529H29.8711L32.0379 150.746H35.1501L37.317 163.529ZM32.4638 159.471H34.5137L33.4887 153.005L32.4638 159.471Z" fill="white"/>
<path d="M38.3047 150.746H40.4294V161.703H43.9534V163.529H38.3374L38.3047 150.746Z" fill="white"/>
<path d="M46.9858 156.134H49.9062V157.96H46.9858V161.703H50.6596V163.529H44.8564V150.746H50.6596V152.572H46.9858V156.134Z" fill="white"/>
<path d="M137.699 197.177C137.699 197.177 135.232 200.086 133.753 200.784C132.275 201.482 128.086 202.879 127.96 203.927C127.833 204.974 127.838 205.673 127.838 205.673H147.316C147.316 205.673 147.686 205.231 147.559 203.577C147.433 201.924 146.207 196.828 146.207 196.828L137.699 197.177Z" fill="white" stroke="#263238" stroke-linecap="round" stroke-linejoin="round"/>
<path d="M147.583 204.275H127.927C127.843 205.128 127.843 205.672 127.843 205.672H147.321C147.321 205.672 147.574 205.345 147.583 204.275Z" fill="white" stroke="#263238" stroke-linecap="round" stroke-linejoin="round"/>
<path d="M168.638 205.092C168.638 205.092 168.503 201.856 168.638 200.433C168.702 199.268 168.662 198.1 168.517 196.941H176.65C176.65 196.941 177.516 200.084 178.377 201.246C179.238 202.409 180.226 204.044 180.226 204.623V205.671H168.765L168.638 205.092Z" fill="white" stroke="#263238" stroke-linecap="round" stroke-linejoin="round"/>
<path d="M180.226 204.624C180.224 204.547 180.211 204.469 180.189 204.395H168.615L168.639 205.093L168.765 205.672H180.226V204.624Z" fill="white" stroke="#263238" stroke-linecap="round" stroke-linejoin="round"/>
<path d="M141.4 117.807C141.4 117.807 137.946 136.49 137.488 146.055C137.029 155.62 136.337 166.913 137.258 172.345C138.18 177.778 137.946 192.554 137.946 192.554C137.946 192.554 135.649 194.074 136.337 196.032L137.029 197.986L147.035 200.266C147.336 199.016 147.529 197.745 147.611 196.465C147.84 193.857 147.143 192.987 147.143 191.466C147.143 189.946 152.314 160.628 152.543 159.762C152.773 158.895 155.197 134.97 155.197 134.97L156.666 139.801C156.666 139.801 161.211 162.003 162.591 168.531C163.972 175.059 167.388 187.979 167.388 189.747C167.388 191.515 167.618 193.004 167.618 194.525C167.618 196.045 166.93 195.612 167.618 197.133C168.306 198.653 168.769 199.961 168.769 199.961L177.661 200.187C177.301 198.394 177.166 196.568 177.258 194.746C177.488 192.355 177.258 188.66 177.488 185.185C177.717 181.711 179.098 171.483 178.18 166.498C177.263 161.512 176.336 162.148 176.336 157.587V129.754C176.336 125.847 174.039 117.586 174.039 117.586C174.039 117.586 157.701 119.111 151.949 118.673C146.197 118.236 141.4 117.807 141.4 117.807Z" fill="#263238" stroke="#263238" stroke-linecap="round" stroke-linejoin="round"/>
<path d="M147.41 119.045C152.99 120.917 159.074 120.966 164.688 119.186L164.22 116.897C164.22 116.897 154.972 117.038 151.94 116.609C148.907 116.181 147.26 116.039 147.26 116.039" fill="#5E5E5E"/>
<path d="M147.41 119.045C152.99 120.917 159.074 120.966 164.688 119.186L164.22 116.897C164.22 116.897 154.972 117.038 151.94 116.609C148.907 116.181 147.26 116.039 147.26 116.039" stroke="#263238" stroke-linecap="round" stroke-linejoin="round"/>
<path d="M156.353 118.573L153.267 118.316L153.106 120.038L156.192 120.295L156.353 118.573Z" fill="white" stroke="#263238" stroke-linecap="round" stroke-linejoin="round"/>
<path d="M159.55 72.3691C159.55 72.3691 153.031 73.8012 150.756 74.6587C148.482 75.5162 148.028 92.5553 148.028 98.8582C148.028 105.161 146.207 115.893 146.666 116.467C147.125 117.042 149.694 118.47 155.455 118.47C158.613 118.513 161.766 118.225 164.857 117.612C164.857 117.612 162.428 107.888 165.325 98.5709C168.222 89.2535 169.72 77.0941 168.657 75.0874C167.595 73.0808 159.55 72.3691 159.55 72.3691Z" fill="#3566B1" stroke="#263238" stroke-linecap="round" stroke-linejoin="round"/>
<path d="M156.353 83.9102C156.353 83.9102 153.985 102.722 153.985 117.06" stroke="#263238" stroke-linecap="round" stroke-linejoin="round"/>
<path d="M157.64 85.4127C157.64 85.5001 157.613 85.5856 157.561 85.6583C157.51 85.731 157.437 85.7876 157.351 85.8211C157.266 85.8545 157.172 85.8633 157.081 85.8462C156.99 85.8292 156.907 85.7871 156.841 85.7252C156.776 85.6634 156.731 85.5847 156.713 85.4989C156.695 85.4132 156.704 85.3243 156.74 85.2436C156.775 85.1628 156.835 85.0938 156.912 85.0452C156.989 84.9966 157.08 84.9707 157.172 84.9707C157.296 84.9707 157.415 85.0173 157.503 85.1002C157.591 85.1831 157.64 85.2955 157.64 85.4127Z" fill="#263238"/>
<path d="M156.901 91.8443C156.901 91.9318 156.873 92.0172 156.822 92.0899C156.771 92.1626 156.697 92.2192 156.612 92.2527C156.526 92.2861 156.432 92.2949 156.342 92.2779C156.251 92.2608 156.167 92.2187 156.102 92.1569C156.036 92.0951 155.992 92.0163 155.974 91.9306C155.956 91.8448 155.965 91.756 156 91.6752C156.036 91.5944 156.096 91.5254 156.173 91.4768C156.25 91.4283 156.34 91.4023 156.433 91.4023C156.557 91.4023 156.676 91.4489 156.764 91.5318C156.852 91.6147 156.901 91.7271 156.901 91.8443Z" fill="#263238"/>
<path d="M156.297 98.9459C156.297 99.0333 156.27 99.1188 156.218 99.1915C156.167 99.2641 156.094 99.3208 156.008 99.3543C155.923 99.3877 155.829 99.3965 155.738 99.3794C155.647 99.3624 155.564 99.3203 155.498 99.2584C155.433 99.1966 155.388 99.1179 155.37 99.0321C155.352 98.9464 155.362 98.8575 155.397 98.7768C155.432 98.696 155.492 98.627 155.569 98.5784C155.646 98.5298 155.737 98.5039 155.829 98.5039C155.953 98.5039 156.072 98.5505 156.16 98.6334C156.248 98.7163 156.297 98.8287 156.297 98.9459Z" fill="#263238"/>
<path d="M155.487 106.448C155.748 106.448 155.96 106.248 155.96 106.001C155.96 105.755 155.748 105.555 155.487 105.555C155.226 105.555 155.015 105.755 155.015 106.001C155.015 106.248 155.226 106.448 155.487 106.448Z" fill="#263238"/>
<path d="M154.814 113.754C155.075 113.754 155.286 113.554 155.286 113.308C155.286 113.061 155.075 112.861 154.814 112.861C154.552 112.861 154.341 113.061 154.341 113.308C154.341 113.554 154.552 113.754 154.814 113.754Z" fill="#263238"/>
<path d="M139.679 78.5258C139.679 78.5258 139.089 82.8398 139.089 85.0453C139.089 87.2509 133.73 97.8412 132.953 99.3087C131.973 101.018 131.163 102.81 130.534 104.661C129.368 107.844 129.598 111.941 130.248 113.059C130.899 114.178 134.559 114.222 137.02 112.874C139.482 111.526 141.944 106.876 142.594 100.878C143.245 94.8798 142.721 83.3657 142.463 81.1646C142.206 78.9634 141.176 78.0043 139.679 78.5258Z" fill="#5E5E5E" stroke="#263238" stroke-linecap="round" stroke-linejoin="round"/>
<path d="M134.807 100.564C134.807 100.564 139.407 101.727 139.562 106.359" stroke="#263238" stroke-linecap="round" stroke-linejoin="round"/>
<path d="M134.039 98.9722C134.039 98.9722 135.111 97.6683 137.104 99.118" stroke="#263238" stroke-linecap="round" stroke-linejoin="round"/>
<path d="M152.867 80.9626C152.867 80.9626 150.288 101.436 149.68 109.308C149.072 117.18 146.652 127.492 145.285 130.356C143.919 133.22 137.404 137.083 137.404 137.083C137.404 137.083 138.616 126.917 139.375 120.049C140.133 113.18 141.195 104.579 141.195 100.159C141.195 95.7387 139.524 80.114 139.679 78.5404C139.833 76.9669 152.413 73.3867 152.413 73.3867C153.081 75.8606 153.235 78.4333 152.867 80.9626Z" fill="#5E5E5E" stroke="#263238" stroke-linecap="round" stroke-linejoin="round"/>
<path d="M150.19 104.092C151.149 94.81 152.89 80.9622 152.89 80.9622C153.256 78.4277 153.097 75.8503 152.422 73.373C152.422 73.373 151.762 73.5587 150.751 73.8637L146.071 81.8904L150.541 83.2959L146.258 86.2883L150.19 104.092Z" fill="#263238" stroke="#263238" stroke-linecap="round" stroke-linejoin="round"/>
<path d="M203.443 100.75C203.443 100.75 204.632 95.6224 204.295 94.1815C203.958 92.7406 200.551 94.0224 200.551 95.6224C200.551 97.2225 202.427 99.9496 203.443 100.75Z" fill="#263238" stroke="#263238" stroke-linecap="round" stroke-linejoin="round"/>
<path d="M201.412 92.2598C201.412 92.2598 203.284 90.8189 203.953 89.8598C204.557 89.0039 205.238 88.1994 205.989 87.4553C206.499 86.9735 209.382 86.3326 210.229 85.0552C211.076 83.7779 212.265 83.6099 212.265 84.8917C212.265 86.1735 209.887 87.6144 209.887 87.6144C209.887 87.6144 213.631 88.578 214.469 88.578C215.307 88.578 219.725 87.6144 219.725 88.578C219.725 89.5415 217.01 92.5825 215.485 93.0599C213.959 93.5372 204.632 95.3052 204.632 95.3052L201.917 98.0279C201.917 98.0279 200.392 94.9826 201.412 92.2598Z" fill="white" stroke="#263238" stroke-linecap="round" stroke-linejoin="round"/>
<path d="M219.196 88.5693C219.196 88.5693 219.95 86.3107 219.402 86.4389C218.855 86.567 217.76 88.6975 217.624 89.5329C217.488 90.3682 219.196 88.5693 219.196 88.5693Z" fill="white" stroke="#263238" stroke-linecap="round" stroke-linejoin="round"/>
<path d="M217.45 91.7904C218.404 90.9725 219.196 90.0012 219.79 88.9218C220.619 87.2864 220.071 87.3129 219.491 87.724C218.91 88.1351 218.241 89.6467 217.778 90.323C217.314 90.9992 216.842 91.618 216.842 91.618" fill="white"/>
<path d="M217.45 91.7904C218.404 90.9725 219.196 90.0012 219.79 88.9218C220.619 87.2864 220.071 87.3129 219.491 87.724C218.91 88.1351 218.241 89.6467 217.778 90.323C217.314 90.9992 216.842 91.618 216.842 91.618" stroke="#263238" stroke-linecap="round" stroke-linejoin="round"/>
<path d="M215.808 92.5862C216.948 92.2222 217.893 91.4533 218.443 90.4425C219.332 88.7629 219.332 88.2325 218.719 88.5684C218.106 88.9043 217.624 89.4524 217.011 90.3762C216.608 90.9579 216.068 91.4435 215.434 91.795" fill="white"/>
<path d="M215.808 92.5862C216.948 92.2222 217.893 91.4533 218.443 90.4425C219.332 88.7629 219.332 88.2325 218.719 88.5684C218.106 88.9043 217.624 89.4524 217.011 90.3762C216.608 90.9579 216.068 91.4435 215.434 91.795" stroke="#263238" stroke-linecap="round" stroke-linejoin="round"/>
<path d="M204.234 93.6775C204.234 93.6775 205.39 91.7636 205.971 91.3526C206.551 90.9415 213.782 91.9007 213.782 91.9007C213.782 91.9007 217.058 88.7448 217.488 89.0188C217.919 89.2929 216.131 92.1128 215.808 92.5858C215.485 93.0587 209.443 94.0886 209.443 94.0886" fill="white"/>
<path d="M204.234 93.6775C204.234 93.6775 205.39 91.7636 205.971 91.3526C206.551 90.9415 213.782 91.9007 213.782 91.9007C213.782 91.9007 217.058 88.7448 217.488 89.0188C217.919 89.2929 216.131 92.1128 215.808 92.5858C215.485 93.0587 209.443 94.0886 209.443 94.0886" stroke="#263238" stroke-linecap="round" stroke-linejoin="round"/>
<path d="M181.078 77.365C181.078 77.365 183.113 87.2967 184.471 90.9786C185.828 94.6604 186.843 97.5467 186.843 97.5467C186.966 97.5041 187.097 97.4873 187.227 97.4975C187.357 97.5076 187.483 97.5446 187.596 97.6056C187.709 97.6667 187.807 97.7504 187.882 97.851C187.958 97.9515 188.009 98.0664 188.032 98.1876L188.369 99.1468L201.768 91.3013C201.762 93.0141 201.876 94.7254 202.11 96.424C202.452 97.8947 202.904 99.3407 203.462 100.751C203.462 100.751 194.987 107.156 191.762 109.238C188.538 111.319 183.806 112.601 182.603 112.442C181.401 112.283 174.802 102.033 174.802 102.033C174.802 102.033 177.348 88.0968 177.685 83.469C178.022 78.8413 180.212 76.8876 181.078 77.365Z" fill="#5E5E5E" stroke="#263238" stroke-linecap="round" stroke-linejoin="round"/>
<path d="M188.351 99.1445C188.351 99.1445 186.479 101.001 186.479 103.03" stroke="#263238" stroke-linecap="round" stroke-linejoin="round"/>
<path d="M186.825 97.5449C186.825 97.5449 183.886 100.422 183.272 103.733" stroke="#263238" stroke-linecap="round" stroke-linejoin="round"/>
<path d="M178.335 88.5461C178.335 88.5461 174.848 108.436 175.606 112.887C176.365 117.338 183.792 133.789 183.792 133.789C170.688 138.368 166.944 136.083 165.451 135.027C164.473 134.333 162.264 121.192 160.747 114.319C159.231 107.446 160.279 100.573 162.568 92.4136C164.856 84.2543 165.601 72.6562 165.601 72.6562C165.601 72.6562 171.965 75.6619 175.756 76.0906C179.547 76.5193 180.605 76.2364 181.063 78.0973C181.522 79.9581 180.305 83.251 180.305 83.6797" fill="#5E5E5E"/>
<path d="M178.335 88.5461C178.335 88.5461 174.848 108.436 175.606 112.887C176.365 117.338 183.792 133.789 183.792 133.789C170.688 138.368 166.944 136.083 165.451 135.027C164.473 134.333 162.264 121.192 160.747 114.319C159.231 107.446 160.279 100.573 162.568 92.4136C164.856 84.2543 165.601 72.6562 165.601 72.6562C165.601 72.6562 171.965 75.6619 175.756 76.0906C179.547 76.5193 180.605 76.2364 181.063 78.0973C181.522 79.9581 180.305 83.251 180.305 83.6797" stroke="#263238" stroke-linecap="round" stroke-linejoin="round"/>
<path d="M163.588 96.847C166.008 92.0955 171.249 84.3517 171.249 84.3517L166.405 82.5837L171.993 80.8157L170.215 74.5481C167.716 73.6243 165.624 72.6387 165.624 72.6387C165.624 72.6387 164.866 84.2368 162.591 92.3961C161.304 97.0194 160.406 101.236 160.144 105.258C161.096 102.386 162.246 99.5765 163.588 96.847Z" fill="#263238" stroke="#263238" stroke-linecap="round" stroke-linejoin="round"/>
<path d="M165.999 118.068L176.178 115.465L176.524 117.091L170.141 118.722" stroke="#263238" stroke-linecap="round" stroke-linejoin="round"/>
<path d="M153.835 74.0091C152.578 75.2507 151.77 76.837 151.528 78.5396C151.215 80.648 151.201 82.8933 150.017 84.7055C152.75 85.0149 154.43 81.1121 157.172 81.3242C158.413 81.4215 159.363 82.3497 160.341 83.0922C161.192 83.7366 162.138 84.2607 163.149 84.6481C163.239 84.7078 163.345 84.7428 163.454 84.7491C163.564 84.7555 163.674 84.7328 163.771 84.6838C163.868 84.6348 163.949 84.5612 164.004 84.4714C164.059 84.3816 164.087 84.279 164.085 84.1751C164.55 82.3777 165.01 80.5802 165.465 78.7827C166.013 76.6523 166.486 74.1727 165.044 72.4489C163.888 71.0698 161.768 70.6809 159.948 70.9947C157.638 71.4035 155.51 72.453 153.835 74.0091Z" fill="#3566B1" stroke="#263238" stroke-linecap="round" stroke-linejoin="round"/>
<path d="M148.318 53.0395C148.318 53.0395 147.41 55.9036 147.56 57.1898C147.71 58.4761 147.71 59.0551 147.092 59.338C146.474 59.6208 144.527 60.9026 144.682 61.7866C144.836 62.6706 146.497 63.9348 146.497 63.9348C146.499 65.4656 146.601 66.9948 146.802 68.5139C147.106 70.3791 148.014 70.662 148.468 70.8079C148.922 70.9537 151.196 70.8079 151.196 70.8079C151.196 70.8079 152.712 76.1119 154.229 79.1086C155.745 82.1054 156.199 83.5507 156.807 82.6888C157.416 81.8269 162.718 75.6743 163.476 72.9648C164.235 70.2554 164.384 66.2066 164.384 66.2066C164.384 66.2066 167.417 61.9104 162.414 56.3279C157.411 50.7455 153.625 50.3167 151.65 50.5819C149.675 50.8471 148.318 53.0395 148.318 53.0395Z" fill="white" stroke="#263238" stroke-linecap="round" stroke-linejoin="round"/>
<path d="M149.226 49.1778C149.226 49.1778 143.165 49.0319 143.769 52.1834C144.373 55.3349 153.924 52.8994 153.924 52.8994C153.924 52.8994 152.109 55.6177 153.625 56.4796C155.141 57.3415 156.503 57.1913 156.503 57.6244C156.503 58.0576 155.745 58.7692 157.112 59.3394C158.478 59.9096 160.294 59.7814 160.444 61.2002C160.593 62.619 158.169 65.355 159.232 66.2125C160.294 67.07 164.234 67.6446 165.142 66.4998C166.05 65.355 169.237 62.9196 170.145 56.4796C171.053 50.0397 168.175 47.0297 165.297 46.0263C162.419 45.023 162.718 47.7457 162.718 47.7457C162.718 47.7457 155.291 43.8782 150.592 45.3103C145.894 46.7424 149.226 49.1778 149.226 49.1778Z" fill="#263238" stroke="#263238" stroke-linecap="round" stroke-linejoin="round"/>
<path d="M156.807 60.6305C156.807 60.6305 157.869 57.0503 159.839 57.6249C161.81 58.1995 161.356 61.9168 160.307 63.2074C159.984 63.5777 159.556 63.8545 159.074 64.0061C158.591 64.1578 158.073 64.1781 157.579 64.0649C157.579 64.0649 156.671 66.6417 154.397 67.6451L152.122 68.6484" fill="white"/>
<path d="M156.807 60.6305C156.807 60.6305 157.869 57.0503 159.839 57.6249C161.81 58.1995 161.356 61.9168 160.307 63.2074C159.984 63.5777 159.556 63.8545 159.074 64.0061C158.591 64.1578 158.073 64.1781 157.579 64.0649C157.579 64.0649 156.671 66.6417 154.397 67.6451L152.122 68.6484" stroke="#263238" stroke-linecap="round" stroke-linejoin="round"/>
<path d="M148.317 57.1907C148.317 57.1907 149.679 55.9044 150.138 57.6327" stroke="#263238" stroke-linecap="round" stroke-linejoin="round"/>
<path d="M149.226 59.6252C149.226 60.2573 149.057 60.77 148.847 60.77C148.636 60.77 148.468 60.2573 148.468 59.6252C148.468 58.9932 148.641 58.4805 148.847 58.4805C149.053 58.4805 149.226 58.9932 149.226 59.6252Z" fill="#263238"/>
<path d="M134.549 116.76C134.549 116.76 137.399 114.435 138.293 112.106C139.187 109.776 136.889 108.066 135.443 109.29C133.997 110.514 134.549 116.76 134.549 116.76Z" fill="white" stroke="#263238" stroke-linecap="round" stroke-linejoin="round"/>
<path d="M137.919 106.584L149.46 105.24L149.717 116.874H139.992L137.011 107.565L137.919 106.584Z" fill="#263238" stroke="#263238" stroke-linecap="round" stroke-linejoin="round"/>
<path d="M135.715 104.26C135.715 104.26 140.512 109.281 140.9 109.648C141.289 110.014 139.997 111.606 139.089 112.83C138.181 114.054 136.103 114.912 136.103 114.912L134.549 118.952C134.549 118.952 130.01 113.811 129.752 111.729C129.495 109.648 131.568 105.983 132.345 105.099C132.736 104.611 133.22 104.196 133.773 103.875" fill="#5E5E5E"/>
<path d="M135.715 104.26C135.715 104.26 140.512 109.281 140.9 109.648C141.289 110.014 139.997 111.606 139.089 112.83C138.181 114.054 136.103 114.912 136.103 114.912L134.549 118.952C134.549 118.952 130.01 113.811 129.752 111.729C129.495 109.648 131.568 105.983 132.345 105.099C132.736 104.611 133.22 104.196 133.773 103.875" stroke="#263238" stroke-linecap="round" stroke-linejoin="round"/>
<path d="M140.123 109.281C140.123 109.281 142.589 109.281 143.235 109.648C143.881 110.015 145.439 112.711 146.347 113.078C147.255 113.445 147.124 114.302 146.735 114.404C146.347 114.506 144.531 114.037 144.143 113.794C143.754 113.551 142.196 112.813 142.196 112.813C142.196 112.813 144.793 115.262 145.308 115.752C145.823 116.243 146.347 116.976 145.828 117.467C145.308 117.958 143.104 117.958 143.104 117.958C142.648 118.451 142.069 118.829 141.419 119.058C140.511 119.306 139.079 119.549 137.918 118.815C136.758 118.081 136.103 116.486 136.103 114.895C136.103 113.303 140.123 109.281 140.123 109.281Z" fill="white" stroke="#263238" stroke-linecap="round" stroke-linejoin="round"/>
<path d="M117.705 90.9604C117.705 90.9604 120.41 104.441 121.398 109.75C122.385 115.058 124.674 124.981 124.674 124.981C124.674 124.981 126.494 132.19 126.256 134.471C126.017 136.752 125.118 139.218 124.267 139.991C123.415 140.765 121.632 140.593 121.43 140.089C121.229 139.585 121.959 138.683 121.959 138.683C121.959 138.683 120.307 139.744 119.877 138.975C119.446 138.206 120.775 137.724 120.775 137.724C120.775 137.724 119.427 137.114 119.746 136.535C120.064 135.956 121.332 136.093 121.332 136.093C121.332 136.093 119.891 133.883 120.083 132.093C120.274 130.303 121.019 128.057 121.056 127.695C121.093 127.333 117.045 118.099 117.045 118.099C117.045 118.099 112.988 104.791 111.401 100.278C109.815 95.7649 112.117 91.4377 113.072 90.9162C114.027 90.3946 117.705 90.9604 117.705 90.9604Z" fill="white" stroke="#263238" stroke-linecap="round" stroke-linejoin="round"/>
<path d="M123.771 130.113C123.771 130.113 122.367 132.412 122.961 134.166C123.556 135.921 123.869 136.553 123.818 137.035C123.766 137.517 122.512 139.687 122.437 140.425C122.362 141.163 123.541 140.894 124.281 139.983C125.02 139.073 125.741 139.51 126.045 136.628C126.181 134.576 126.006 132.516 125.526 130.511" fill="white"/>
<path d="M123.771 130.113C123.771 130.113 122.367 132.412 122.961 134.166C123.556 135.921 123.869 136.553 123.818 137.035C123.766 137.517 122.512 139.687 122.437 140.425C122.362 141.163 123.541 140.894 124.281 139.983C125.02 139.073 125.741 139.51 126.045 136.628C126.181 134.576 126.006 132.516 125.526 130.511" stroke="#263238" stroke-linecap="round" stroke-linejoin="round"/>
<path d="M124.688 124.994C124.688 124.994 122.386 115.071 121.412 109.762C120.439 104.454 117.706 90.9598 117.706 90.9598C117.706 90.9598 114.041 90.3764 113.087 90.8935C112.132 91.4107 109.811 95.7555 111.416 100.259C113.021 104.763 117.06 118.081 117.06 118.081C117.06 118.081 121.108 127.319 121.071 127.677L125.049 126.475C124.838 125.577 124.688 124.994 124.688 124.994Z" fill="#3566B1" stroke="#263238" stroke-linecap="round" stroke-linejoin="round"/>
<path d="M121.496 196.832C121.496 196.832 128.207 197.424 130.702 196.982C133.196 196.54 135.85 197.57 136.163 198.6C136.477 199.63 136.004 200.664 132.728 201.99C129.452 203.316 127.271 203.17 123.214 204.054C119.156 204.938 117.911 205.526 116.662 205.084C115.412 204.642 114.944 199.338 114.944 199.338L121.496 196.832Z" fill="white" stroke="#263238" stroke-linecap="round" stroke-linejoin="round"/>
<path d="M121.496 196.832C121.496 196.832 128.207 197.424 130.702 196.982C133.196 196.54 135.85 197.57 136.163 198.6C136.477 199.63 136.004 200.664 132.728 201.99C129.452 203.316 127.271 203.17 123.214 204.054C119.156 204.938 117.911 205.526 116.662 205.084C115.412 204.642 114.944 199.338 114.944 199.338L121.496 196.832Z" fill="#263238" stroke="#263238" stroke-linecap="round" stroke-linejoin="round"/>
<path d="M136.149 198.601C135.845 197.602 133.341 196.603 130.903 196.952L131.623 200.811C131.623 200.811 126.789 201.549 121.95 202.729C119.92 203.224 117.853 203.573 115.768 203.772C116.006 204.444 116.296 204.961 116.647 205.098C117.897 205.54 119.142 204.952 123.199 204.068C127.257 203.184 129.438 203.33 132.714 202.004C135.99 200.678 136.472 199.635 136.149 198.601Z" fill="white" stroke="#263238" stroke-linecap="round" stroke-linejoin="round"/>
<path d="M91.2212 197.867C91.2212 197.867 91.8436 200.223 94.0292 200.665C96.2148 201.107 98.7092 203.171 98.7092 204.201C98.7092 205.231 97.6141 205.673 93.4021 205.673C89.1901 205.673 86.822 206.027 84.95 204.992C83.078 203.958 83.8876 199.485 84.2012 197.867C84.5148 196.25 91.2212 197.867 91.2212 197.867Z" fill="#263238" stroke="#263238" stroke-linecap="round" stroke-linejoin="round"/>
<path d="M98.709 204.201C98.709 203.626 97.9274 202.729 96.8604 201.969C95.7793 202.119 94.1366 202.411 93.2474 202.875C91.8434 203.613 91.8434 204.347 91.8434 204.347C91.8434 204.347 87.8654 205.129 86.0402 204.258C85.199 203.841 84.4135 203.331 83.7002 202.738C83.7938 203.688 84.1354 204.541 84.9591 204.992C86.8311 206.026 89.1992 205.673 93.4112 205.673C97.6232 205.673 98.709 205.231 98.709 204.201Z" fill="white" stroke="#263238" stroke-linecap="round" stroke-linejoin="round"/>
<path d="M118.533 121.99C118.533 121.99 119.469 126.556 120.405 132.894C121.341 139.232 121.187 155.286 121.187 162.508C121.187 169.73 121.341 192.122 121.341 192.856V194.774C121.341 194.774 114.476 197.426 114.008 197.426C113.54 197.426 111.668 186.376 110.264 180.48C108.86 174.584 108.069 168.4 108.069 164.864C108.069 161.328 107.442 158.38 107.442 157.646C107.442 156.912 102.921 134.512 102.921 134.512C102.921 134.512 98.8633 159.414 97.7729 164.568C96.6824 169.722 91.6889 192.268 91.3753 193.594C91.1694 194.663 91.0644 195.747 91.0618 196.834L84.5098 196.246C84.5098 196.246 84.3553 188.586 84.2009 182.398C84.0464 176.21 83.4193 170.906 83.8873 166.928C84.3553 162.95 85.7593 156.024 85.9138 155.286C86.0682 154.548 85.4458 137.902 85.4458 136.28C85.4458 134.658 85.9138 120.664 85.9138 120.664L107.442 120.96L118.533 121.99Z" fill="#263238" stroke="#263238" stroke-linecap="round" stroke-linejoin="round"/>
<path d="M112.137 195.362L114.168 200.962L123.682 196.688L121.965 191.68L112.137 195.362Z" fill="white" stroke="#263238" stroke-linecap="round" stroke-linejoin="round"/>
<path d="M83.1201 194.18L92.9481 195.064V198.6L83.2792 198.896L83.1201 194.18Z" fill="white" stroke="#263238" stroke-linecap="round" stroke-linejoin="round"/>
<path d="M96.2528 74.8198C96.2528 74.8198 88.0768 76.6894 85.3063 77.6839C82.5357 78.6784 81.8805 79.8011 81.4827 81.2951C81.0849 82.789 85.4373 111.391 85.8351 114.379C86.2329 117.367 85.0442 121.477 87.2859 123.594C89.5276 125.712 100.816 126.543 107.064 126.459C113.054 126.375 117.547 125.416 118.735 123.298C119.924 121.181 119.592 120.231 119.592 115.749C119.592 111.267 119.194 95.8236 118.801 90.113C118.408 84.4023 118.534 81.768 116.293 80.2741C114.051 78.7801 110.096 74.8375 107.723 74.7137C105.351 74.5899 98.0967 73.8253 96.2528 74.8198Z" fill="#3566B1" stroke="#263238" stroke-linecap="round" stroke-linejoin="round"/>
<path d="M99.8794 91.8549L96.0886 86.2812L92.2979 91.8549L96.0886 97.4241L99.8794 91.8549Z" fill="white"/>
<path d="M108.519 91.8549L104.728 86.2812L100.938 91.8549L104.728 97.4241L108.519 91.8549Z" fill="white"/>
<path d="M117.153 91.8549L113.362 86.2812L109.576 91.8549L113.362 97.4241L117.153 91.8549Z" fill="white"/>
<path d="M99.8794 104.007L96.0886 98.4336L92.2979 104.007L96.0886 109.581L99.8794 104.007Z" fill="white"/>
<path d="M108.519 104.007L104.728 98.4336L100.938 104.007L104.728 109.581L108.519 104.007Z" fill="white"/>
<path d="M117.153 104.007L113.362 98.4336L109.576 104.007L113.362 109.581L117.153 104.007Z" fill="white"/>
<path d="M99.8794 116.163L96.0886 110.594L92.2979 116.163L96.0886 121.737L99.8794 116.163Z" fill="white"/>
<path d="M108.519 116.163L104.728 110.594L100.938 116.163L104.728 121.737L108.519 116.163Z" fill="white"/>
<path d="M117.153 116.163L113.362 110.594L109.576 116.163L113.362 121.737L117.153 116.163Z" fill="white"/>
<path d="M99.678 72.3965C99.678 72.3965 97.1742 73.7667 96.7764 74.7612C96.3786 75.7557 95.0635 78.3723 95.0635 78.3723L97.5673 85.0996L101.391 80.737L102.842 80.1138L106.403 80.242L110.615 85.104C110.615 85.104 111.275 80.9934 110.615 77.8773C109.955 74.7612 108.743 73.5192 107.316 73.0153C105.888 72.5114 100.867 72.3965 99.678 72.3965Z" fill="white" stroke="#263238" stroke-linecap="round" stroke-linejoin="round"/>
<path d="M98.8869 70.6639C98.8869 70.6639 98.7559 74.6419 98.7559 75.3978C98.7559 76.1536 104.03 83.9902 104.952 83.2433C105.874 82.4963 108.228 76.2685 108.228 76.2685L109.281 68.3125L98.8869 70.6639Z" fill="white" stroke="#263238" stroke-linecap="round" stroke-linejoin="round"/>
<path d="M96.9122 57.837C96.9122 57.837 95.3257 55.2204 94.8015 57.2138C94.2773 59.2072 95.0636 61.1918 95.8545 61.0769C96.6454 60.962 96.9122 57.837 96.9122 57.837Z" fill="white" stroke="#263238" stroke-linecap="round" stroke-linejoin="round"/>
<path d="M97.8339 48.1211C97.8339 48.1211 95.1943 51.7367 95.1943 53.8671C95.1967 55.1387 95.5621 56.3862 96.252 57.4782L99.4157 49.1333L97.8339 48.1211Z" fill="#263238" stroke="#263238" stroke-linecap="round" stroke-linejoin="round"/>
<path d="M98.8872 48.4987C98.8872 48.4987 96.9123 52.8568 96.7765 54.1032C96.6408 55.3497 94.9326 62.9432 94.9326 65.4361C94.9326 67.929 95.8686 68.5301 98.0963 69.5467C100.324 70.5633 105.743 70.5412 107.723 69.5467C109.703 68.5522 111.416 64.6847 111.416 64.6847C111.416 64.6847 115.239 63.8007 114.977 61.5686C114.715 59.3365 112.338 60.3266 112.338 60.3266C112.338 60.3266 114.05 57.3342 114.05 54.8458C114.05 52.3573 104.428 48.2467 102.842 47.9948C101.255 47.7428 98.8872 48.4987 98.8872 48.4987Z" fill="white" stroke="#263238" stroke-linecap="round" stroke-linejoin="round"/>
<path d="M99.3975 44.3784C97.6144 44.5905 96.0794 45.2314 96.7767 46.8801C97.8344 49.3685 99.5472 50.615 102.711 51.6095C105.875 52.604 109.703 52.9797 110.358 53.9786C111.013 54.9775 109.043 55.7201 109.834 56.3433L111.416 57.5897C111.416 57.5897 108.383 66.306 108.116 66.6817C107.85 67.0574 105.219 66.8054 104.56 65.7977C103.9 64.7899 104.162 63.0573 102.842 62.7037C101.522 62.3501 97.3055 61.3335 96.9124 61.8197C96.0069 62.6917 95.3291 63.7511 94.9328 64.9137C94.4039 66.6596 93.9968 70.5182 96.7767 71.2652C99.5566 72.0122 105.084 71.8884 106.534 71.1415C107.985 70.3945 109.834 69.148 110.358 67.6541C110.882 66.1601 111.945 62.1733 112.998 59.9323C114.051 57.6914 117.083 55.1985 115.768 51.8393C114.453 48.4801 105.472 44.617 103.132 44.3651C101.89 44.2412 100.638 44.2457 99.3975 44.3784Z" fill="#263238" stroke="#263238" stroke-linecap="round" stroke-linejoin="round"/>
<path d="M103.88 57.268C103.717 57.8338 103.384 58.2404 103.141 58.152C102.898 58.0636 102.827 57.5774 102.991 57.0161C103.155 56.4548 103.487 56.0481 103.735 56.1321C103.983 56.2161 104.044 56.7067 103.88 57.268Z" fill="#263238"/>
<path d="M98.9388 55.9631C98.775 56.5245 98.4427 56.9311 98.1947 56.8471C97.9466 56.7632 97.8811 56.277 98.0496 55.7112C98.2181 55.1454 98.5457 54.7432 98.789 54.8051C99.0324 54.867 99.1026 55.3974 98.9388 55.9631Z" fill="#263238"/>
<path d="M103.39 54.2263C103.39 54.2263 105.631 53.855 106.16 56.2197" stroke="#263238" stroke-width="2" stroke-linecap="round" stroke-linejoin="round"/>
<path d="M99.8091 53.4792C99.8091 53.4792 99.0182 52.5952 97.5674 53.3554" stroke="#263238" stroke-width="2" stroke-linecap="round" stroke-linejoin="round"/>
<path d="M100.736 54.6016L100.207 57.2138C100.207 57.2138 96.9309 59.8304 97.5674 61.3244C98.2039 62.8183 101.391 61.5719 101.391 61.5719" stroke="#263238" stroke-linecap="round" stroke-linejoin="round"/>
<path d="M99.9168 65.2451C98.9097 65.2688 97.9281 64.9451 97.1555 64.3345C97.0521 64.2336 96.9925 64.0996 96.9885 63.9592C96.9845 63.8187 97.0364 63.682 97.134 63.5759C97.2316 63.4699 97.3678 63.4022 97.5156 63.3864C97.6634 63.3705 97.8122 63.4076 97.9324 63.4903C98.7327 64.1489 99.9589 64.308 101.293 63.9323C101.443 63.8901 101.605 63.906 101.742 63.9764C101.88 64.0469 101.983 64.1662 102.027 64.308C102.072 64.4499 102.055 64.6027 101.981 64.7328C101.906 64.8629 101.78 64.9598 101.63 65.002C101.074 65.1597 100.497 65.2416 99.9168 65.2451Z" fill="white" stroke="#263238" stroke-linecap="round" stroke-linejoin="round"/>
<path d="M102.757 139.797C101.969 137.39 100.894 135.075 99.5515 132.898C98.6951 131.62 98.564 131.545 97.6795 130.246L97.1694 129.561L92.6953 131.589C92.6953 131.589 93.7202 135.475 94.0104 136.451C94.4311 137.419 95.0177 138.315 95.7467 139.103L95.8216 139.457L96.1024 141.172C96.1679 141.614 95.9198 142.94 96.1024 143.475C96.2849 144.01 96.898 143.364 97.0384 142.684C97.132 142.171 97.2349 140.885 97.2817 140.306L97.3566 140.332C97.4362 140.823 97.5812 141.742 97.6327 142.051C97.7639 142.821 98.0413 143.563 98.4517 144.239C98.8963 144.836 99.2473 144.124 99.2567 143.466C99.2567 142.935 98.9665 140.96 98.8448 140.204H98.9291C99.2532 140.89 99.533 141.594 99.7668 142.312C99.8323 142.754 100.057 144.138 100.567 144.394C101.077 144.65 101.442 144.049 101.4 143.068C101.271 141.999 101.076 140.938 100.815 139.89H101.049C101.402 140.412 101.676 140.977 101.863 141.57C101.971 142.215 102.074 142.86 102.72 142.547C103.366 142.233 102.991 140.535 102.757 139.797Z" fill="white" stroke="#263238" stroke-linecap="round" stroke-linejoin="round"/>
<path d="M83.9861 78.5547C83.9861 78.5547 81.0845 79.4387 80.2936 81.7945C79.5026 84.1504 78.5713 109.199 79.3014 111.227C80.0315 113.256 92.5926 132.51 92.5926 132.51L97.6985 130.264L87.5569 108.642L89.6582 87.1383" fill="#3566B1"/>
<path d="M83.9861 78.5547C83.9861 78.5547 81.0845 79.4387 80.2936 81.7945C79.5026 84.1504 78.5713 109.199 79.3014 111.227C80.0315 113.256 92.5926 132.51 92.5926 132.51L97.6985 130.264L87.5569 108.642L89.6582 87.1383" stroke="#263238" stroke-linecap="round" stroke-linejoin="round"/>
<path d="M67.9064 54.4219C67.9064 54.4219 73.1995 54.3821 75.5254 57.0739C77.8514 59.7657 74.6315 63.6022 74.2524 64.9415C73.8734 66.2808 71.5334 73.0787 71.9686 76.3186C72.4038 79.5584 73.3726 80.2126 74.5894 80.1463C75.8062 80.08 75.4505 80.6944 74.6362 81.8126C73.8219 82.9309 71.276 83.3729 70.6395 82.7276C70.003 82.0823 69.17 80.5971 68.4586 79.0148C67.7472 77.4324 67.7519 77.1186 68.0421 72.1328C68.3322 67.1471 69.3291 60.8309 68.95 59.1513C68.5709 57.4717 67.9064 54.4219 67.9064 54.4219Z" fill="#263238" stroke="#263238" stroke-linecap="round" stroke-linejoin="round"/>
<path d="M81.6842 100.446C81.6842 100.446 84.8011 111.889 85.957 116.402C87.113 120.915 89.701 129.322 89.701 129.322C89.701 129.322 91.6853 135.426 91.6151 137.397C91.5449 139.368 90.9178 141.538 90.2111 142.259C89.5045 142.979 87.9835 142.917 87.7775 142.493C87.5716 142.069 88.152 141.256 88.152 141.256C88.152 141.256 86.7947 142.254 86.3782 141.618C85.9617 140.982 87.0802 140.495 87.0802 140.495C87.0802 140.495 85.8822 140.053 86.1208 139.527C86.3595 139.001 87.4593 139.05 87.4593 139.05C87.4593 139.05 86.0928 137.238 86.1489 135.678C86.2656 134.391 86.4593 133.111 86.7292 131.845C86.7292 131.532 82.7185 123.805 82.7185 123.805C82.7185 123.805 79.377 112.561 77.7483 108.777C76.1197 104.994 76.92 101.153 77.7109 100.658C78.5018 100.163 81.6842 100.446 81.6842 100.446Z" fill="white" stroke="#263238" stroke-linecap="round" stroke-linejoin="round"/>
<path d="M89.1907 133.781C89.1907 133.781 88.1283 135.832 88.7227 137.317C89.317 138.802 89.6587 139.324 89.6259 139.739C89.5931 140.155 88.6618 142.1 88.6384 142.727C88.615 143.355 89.6166 143.068 90.1969 142.254C90.7772 141.441 91.4277 141.773 91.5166 139.28C91.5137 137.509 91.2426 135.749 90.7117 134.051" fill="white"/>
<path d="M89.1907 133.781C89.1907 133.781 88.1283 135.832 88.7227 137.317C89.317 138.802 89.6587 139.324 89.6259 139.739C89.5931 140.155 88.6618 142.1 88.6384 142.727C88.615 143.355 89.6166 143.068 90.1969 142.254C90.7772 141.441 91.4277 141.773 91.5166 139.28C91.5137 137.509 91.2426 135.749 90.7117 134.051" stroke="#263238" stroke-linecap="round" stroke-linejoin="round"/>
<path d="M81.6837 100.447C81.6837 100.447 78.4966 100.138 77.7104 100.633C76.9241 101.128 76.1192 104.955 77.7478 108.752C78.8897 111.404 80.8694 117.729 81.9598 121.27L83.6072 120.699L86.93 119.953C86.5649 118.666 86.228 117.433 85.9612 116.417C84.8006 111.89 81.6837 100.447 81.6837 100.447Z" fill="#5E5E5E" stroke="#263238" stroke-linecap="round" stroke-linejoin="round"/>
<path d="M82.2413 127.369C82.2413 127.369 84.4831 130.242 81.5627 141.955C78.6424 153.668 74.9639 160.612 73.9203 163.529C72.6398 167.132 71.0527 170.631 69.1748 173.991C67.1764 177.466 59.8803 189.21 59.0238 191.229C58.394 192.853 57.8658 194.511 57.442 196.193C57.442 196.193 58.3359 197.4 61.0643 199.698C63.7928 201.997 67.1717 203.433 66.8254 204.454C66.4791 205.475 63.1937 205.515 60.6993 205.435C58.2049 205.356 55.6309 203.225 53.932 202.713C52.2332 202.2 51.7465 202.642 51.7465 202.642L51.4142 203.221L48.1382 202.527C47.9113 201.404 47.9529 200.247 48.2599 199.141C48.784 197.537 49.3831 196.975 50.6607 193.174C51.8822 189.528 54.5311 172.621 55.8976 169.275C57.2642 165.929 59.7773 161.143 60.8116 158.521C61.8459 155.9 63.7179 147.118 62.9083 143.551C62.0986 139.984 56.0567 130.065 57.8351 128.355C59.6135 126.644 71.3135 126.87 72.5537 127.055C73.7939 127.241 82.2413 127.369 82.2413 127.369Z" fill="#263238" stroke="#263238" stroke-linecap="round" stroke-linejoin="round"/>
<path d="M61.0642 199.694C58.3358 197.395 57.4419 196.189 57.4419 196.189C57.4419 196.189 57.5682 195.68 57.7788 194.947C55.2879 194.988 52.8285 194.417 50.6418 193.289C49.397 196.98 48.8026 197.55 48.3018 199.137C47.9949 200.243 47.9533 201.399 48.1802 202.522L51.4562 203.216L51.7884 202.637C51.7884 202.637 52.2564 202.195 53.974 202.708C55.6916 203.221 58.2468 205.36 60.7413 205.431C63.2357 205.502 66.5164 205.471 66.8674 204.45C67.2184 203.429 63.788 202.001 61.0642 199.694Z" fill="white" stroke="#263238" stroke-linecap="round" stroke-linejoin="round"/>
<path d="M61.7944 200.287L60.353 202.055C57.4773 201.452 54.722 200.419 52.1911 198.996C51.1642 198.411 50.1015 197.884 49.0087 197.418C48.7292 197.985 48.4869 198.568 48.2833 199.164C47.9763 200.27 47.9347 201.427 48.1616 202.55L51.4376 203.244L51.7699 202.665C51.7699 202.665 52.2379 202.223 53.9555 202.735C55.673 203.248 58.2283 205.387 60.7227 205.458C63.2172 205.529 66.4978 205.498 66.8488 204.477C67.1437 203.526 64.3544 202.249 61.7944 200.287Z" fill="#3566B1" stroke="#263238" stroke-linecap="round" stroke-linejoin="round"/>
<path d="M67.6767 133.093C67.6767 133.093 69.9137 144.665 70.9527 150.597C71.9917 156.528 72.0431 163.6 72.9604 168.498C73.8777 173.395 77.8089 194.452 77.9446 194.898C78.0803 195.345 78.553 195.34 81.5014 195.893C84.4498 196.445 90.3934 196.472 91.5868 197.546C92.7802 198.62 93.0984 198.92 89.434 201.016C85.7696 203.111 76.9852 204.3 75.7263 204.552C74.8895 204.687 74.0298 204.607 73.2365 204.322C73.2365 204.322 70.8965 195.11 70.3443 193.616C69.7921 192.122 63.7595 181.316 62.3415 177.439C60.9234 173.563 60.2963 169.116 59.5335 164.228C58.7707 159.339 56.557 155.879 56.1265 154.831C55.6959 153.783 47.7446 144.842 46.0317 140.364C44.3188 135.887 44.6558 126.459 44.6558 126.459L66.7407 128.788" fill="#263238"/>
<path d="M67.6767 133.093C67.6767 133.093 69.9137 144.665 70.9527 150.597C71.9917 156.528 72.0431 163.6 72.9604 168.498C73.8777 173.395 77.8089 194.452 77.9446 194.898C78.0803 195.345 78.553 195.34 81.5014 195.893C84.4498 196.445 90.3934 196.472 91.5868 197.546C92.7802 198.62 93.0985 198.92 89.434 201.016C85.7696 203.111 76.9852 204.3 75.7263 204.552C74.8895 204.687 74.0298 204.607 73.2365 204.322C73.2365 204.322 70.8965 195.11 70.3443 193.616C69.7921 192.123 63.7595 181.316 62.3415 177.439C60.9234 173.563 60.2963 169.116 59.5335 164.228C58.7707 159.339 56.557 155.879 56.1265 154.831C55.6959 153.783 47.7446 144.842 46.0317 140.364C44.3188 135.887 44.6558 126.459 44.6558 126.459L66.7407 128.788" stroke="#263238" stroke-linecap="round" stroke-linejoin="round"/>
<path d="M91.5874 197.545C90.38 196.471 84.4458 196.431 81.502 195.892C78.5583 195.353 78.0856 195.344 77.9452 194.897C77.9452 194.858 77.8984 194.69 77.8423 194.402C76.3868 195.286 73.8502 196.586 71.3184 196.948C72.1795 200.135 73.2372 204.325 73.2372 204.325C74.0304 204.611 74.8902 204.69 75.7269 204.555C76.9858 204.299 85.7702 203.105 89.4346 201.019C93.0991 198.933 92.7996 198.615 91.5874 197.545Z" fill="white" stroke="#263238" stroke-linecap="round" stroke-linejoin="round"/>
<path d="M91.5874 197.545C90.5999 196.661 86.4768 196.48 83.3927 196.148L83.8607 199.653C83.8607 199.653 76.7846 201.421 72.5117 201.51C72.9282 203.119 73.2324 204.325 73.2324 204.325L73.7004 205.651C74.178 205.7 74.6596 205.7 75.1372 205.651C76.082 205.475 77.0089 205.222 77.9078 204.896L77.7346 204.233C80.8749 203.702 86.6266 202.628 89.4346 201.033C93.0944 198.92 92.7995 198.615 91.5874 197.545Z" fill="#3566B1" stroke="#263238" stroke-linecap="round" stroke-linejoin="round"/>
<path d="M68.8652 55.2829C68.8652 55.2829 71.9353 58.8189 72.6513 60.4013C73.3673 61.9837 73.1193 63.0179 73.7371 63.871C74.3548 64.7241 76.1379 64.5694 76.1005 65.6125C76.063 66.6556 75.2627 67.4556 75.1411 67.765C75.0194 68.0744 75.7869 71.2215 75.8384 72.8878C75.8899 74.5541 75.0802 75.6724 73.8541 75.9464C72.6279 76.2205 70.5219 76.6713 70.5219 76.6713C70.5219 76.6713 69.6421 82.7842 70.4798 84.0616C71.3175 85.3389 73.9383 85.9401 73.9383 85.9401C73.9383 85.9401 79.9895 86.2406 81.4263 89.8208C82.8631 93.401 81.8007 100.871 81.8335 103.054C81.8662 105.238 81.0519 106.36 82.732 111.722C84.4121 117.083 87.6554 128.116 87.6554 128.116L81.9692 129.91C81.9692 129.91 72.4173 131.996 66.1508 131.59C59.8843 131.183 49.153 129.274 46.3169 128.562C43.4809 127.851 43.6213 126.913 43.6213 126.913C43.6213 126.913 47.9456 113.835 48.3574 108.54C48.7693 103.244 46.9534 95.7967 46.3778 92.9679C45.8021 90.1391 46.7569 85.5909 48.4276 85.0119C50.0984 84.4328 55.4149 83.7787 55.7471 83.7875C56.0794 83.7964 60.3195 79.1465 59.7251 77.3564C59.1308 75.5663 58.6815 66.5009 59.4958 62.156C60.3101 57.8112 63.6376 53.5547 68.8652 55.2829Z" fill="white" stroke="#263238" stroke-linecap="round" stroke-linejoin="round"/>
<path d="M70.5227 76.6719L67.0361 77.2421L70.1577 78.4487L70.5227 76.6719Z" fill="#263238" stroke="#263238" stroke-linecap="round" stroke-linejoin="round"/>
<path d="M72.2117 64.4416C72.3661 65.1444 72.2117 65.7676 71.8654 65.8383C71.5191 65.9091 71.1166 65.3963 70.9621 64.6803C70.8077 63.9643 70.9621 63.3543 71.3131 63.2836C71.6641 63.2129 72.0619 63.7521 72.2117 64.4416Z" fill="#263238"/>
<path d="M69.7178 62.2855C69.7178 62.2855 70.1109 60.6325 71.9455 61.627" stroke="#263238" stroke-linecap="round" stroke-linejoin="round"/>
<path d="M74.294 69.8206C73.9096 70.0394 73.4548 70.1205 73.0124 70.0491C72.57 69.9777 72.1694 69.7586 71.8838 69.4316" stroke="#263238" stroke-linecap="round" stroke-linejoin="round"/>
<path d="M82.7091 111.736C81.029 106.374 81.8433 105.252 81.8105 103.068C81.8105 101.663 82.2083 98.0782 82.1381 94.7455C81.1319 93.8173 80.093 93.3664 79.0634 93.614C73.7282 94.9002 58.228 93.8836 58.228 93.8836L46.762 94.8516C47.5015 98.3478 48.6808 104.173 48.3438 108.554C47.932 113.858 43.6077 126.927 43.6077 126.927C43.6077 126.927 43.4626 127.86 46.3034 128.576C49.1441 129.292 59.8754 131.193 66.1372 131.604C72.399 132.015 81.9556 129.924 81.9556 129.924L87.6418 128.13C87.6418 128.13 84.3939 117.084 82.7091 111.736Z" fill="white" stroke="#263238" stroke-linecap="round" stroke-linejoin="round"/>
<path d="M77.7482 108.752L69.5254 112.969" stroke="#263238" stroke-linecap="round" stroke-linejoin="round"/>
<path d="M66.2119 112.143L71.6173 109.84" stroke="#263238" stroke-linecap="round" stroke-linejoin="round"/>
<path d="M62.1448 122.826C63.2258 117.239 64.7796 104.704 63.048 97.6677C61.5083 91.4089 56.496 85.1281 55.3915 83.8242C54.142 83.948 49.8738 84.5182 48.4043 85.022C46.7335 85.5922 45.7975 90.1404 46.3544 92.978C46.9114 95.8157 48.7412 103.255 48.3341 108.55C47.9269 113.845 43.5979 126.924 43.5979 126.924C43.5979 126.924 43.4528 127.856 46.2936 128.572C48.3949 129.098 54.8346 130.283 60.577 131.025C60.9093 129.244 61.4802 126.274 62.1448 122.826Z" fill="#5E5E5E" stroke="#263238" stroke-linecap="round" stroke-linejoin="round"/>
<path d="M78.6892 110.237L82.8451 129.627L87.6327 128.116C87.6327 128.116 84.3941 117.066 82.7093 111.722C81.0245 106.378 81.8435 105.238 81.8108 103.054C81.778 100.871 82.817 93.4053 81.4036 89.8207C79.9903 86.2361 73.9156 85.94 73.9156 85.94C73.9156 85.94 73.6676 85.8825 73.2979 85.7676C74.641 88.1544 78.6237 95.2927 79.9669 98.5193C81.5908 102.422 82.2179 103.381 80.9029 105.834C79.5878 108.287 78.6892 110.237 78.6892 110.237Z" fill="#5E5E5E" stroke="#263238" stroke-linecap="round" stroke-linejoin="round"/>
<path d="M53.1826 83.9254C53.1826 83.9254 57.9281 91.3112 58.9297 94.056C59.9312 96.8008 61.0357 98.5467 61.1433 101.672C61.2509 104.797 58.4617 114.932 58.4617 114.932L60.446 114.994C60.446 114.994 63.0527 100.611 62.8936 98.9401C62.7345 97.2693 56.9547 86.3652 56.4352 85.4105C56.1512 84.9029 55.9132 84.3736 55.7239 83.8281L53.1826 83.9254Z" fill="#3566B1" stroke="#263238" stroke-linecap="round" stroke-linejoin="round"/>
<path d="M44.6513 112.898C44.6513 112.898 60.1468 114.016 60.4791 114.029C60.8114 114.042 63.3198 133.163 63.6989 134.843C64.078 136.523 62.1124 139.161 58.6632 139.988C55.2141 140.814 45.2457 139.245 41.0992 138.176C36.9527 137.106 33.2462 135.966 34.1728 131.501C35.0994 127.037 38.1134 113.936 38.1368 113.207C38.1602 112.478 44.6513 112.898 44.6513 112.898Z" fill="#3566B1" stroke="#263238" stroke-linecap="round" stroke-linejoin="round"/>
<path d="M57.2263 139.086C56.8157 139.223 56.3903 139.316 55.958 139.364" stroke="#263238" stroke-linecap="round" stroke-linejoin="round"/>
<path d="M58.4619 114.898C58.4619 114.898 60.2122 133.374 59.6413 135.553C59.3371 136.72 59.1124 137.626 58.5368 138.267" stroke="#263238" stroke-linecap="round" stroke-linejoin="round"/>
<path d="M55.9443 119.629L57.3951 119.766" stroke="#263238" stroke-linecap="round" stroke-linejoin="round"/>
<path d="M38.8623 118.016L53.492 119.399" stroke="#263238" stroke-linecap="round" stroke-linejoin="round"/>
<path d="M39.1855 119.184L45.1572 119.838" stroke="#263238" stroke-linecap="round" stroke-linejoin="round"/>
<path d="M51.7039 85.2147C51.7039 85.2147 47.7587 84.5694 44.2861 86.1252C40.8135 87.6811 41.2488 94.0547 40.266 96.8305C39.2832 99.6062 36.2552 107.315 35.6281 109.485C35.001 111.655 38.1319 113.313 40.6731 113.184C43.2144 113.056 45.6246 113.344 46.5325 109.626C47.4404 105.909 50.9223 94.6735 50.9223 94.6735" fill="#5E5E5E"/>
<path d="M51.7039 85.2147C51.7039 85.2147 47.7587 84.5694 44.2861 86.1252C40.8135 87.6811 41.2488 94.0547 40.266 96.8305C39.2832 99.6062 36.2552 107.315 35.6281 109.485C35.001 111.655 38.1319 113.313 40.6731 113.184C43.2144 113.056 45.6246 113.344 46.5325 109.626C47.4404 105.909 50.9223 94.6735 50.9223 94.6735" stroke="#263238" stroke-linecap="round" stroke-linejoin="round"/>
<path d="M56.1599 102.337C56.1599 102.337 57.9242 99.2696 58.4998 98.3591C59.0755 97.4486 60.4046 97.4751 61.0739 97.2983C61.7431 97.1215 63.2828 97.1613 63.0441 97.674C62.8192 98.0466 62.497 98.3585 62.1081 98.5801C62.1081 98.5801 64.523 98.7613 65.2952 98.7878C66.0674 98.8143 65.8194 99.5304 66.0206 100.061C66.2218 100.591 65.445 100.768 65.3139 101.285C65.1441 102.198 64.892 103.096 64.5604 103.968C64.2001 104.684 61.4342 105.117 60.3157 105.497C59.1972 105.877 57.5358 106.24 57.5358 106.24C57.5358 106.24 51.3114 109.776 47.5206 111.955C43.2477 114.421 39.237 115.646 37.482 115.38C35.727 115.115 34.3838 112.578 35.039 109.785C35.5819 107.46 37.1076 105.656 44.2259 105.502C48.0869 105.418 52.6498 104.618 53.8666 104.039C54.7269 103.597 55.5022 103.022 56.1599 102.337Z" fill="white" stroke="#263238" stroke-linecap="round" stroke-linejoin="round"/>
<path d="M44.9692 110.202C44.5939 109.466 44.3924 108.662 44.3787 107.846C44.3649 107.029 44.5393 106.219 44.8897 105.473H44.2532C37.1349 105.627 35.6092 107.431 35.0664 109.756C34.4112 112.549 35.7543 115.086 37.5093 115.351C39.138 115.599 42.7275 114.556 46.6587 112.421C45.9553 111.786 45.3825 111.034 44.9692 110.202Z" fill="#5E5E5E" stroke="#263238" stroke-linecap="round" stroke-linejoin="round"/>
<path d="M68.866 55.2829C68.866 55.2829 69.2919 61.8554 66.994 67.818C64.6962 73.7806 62.6183 76.1055 63.7508 78.426C64.8834 80.7465 66.7366 81.1222 66.7366 81.1222C66.7366 81.1222 67.0549 81.5642 66.2686 82.5631C65.4824 83.562 62.5808 84.004 62.5808 84.004C62.6826 84.6671 62.6201 85.3434 62.3983 85.9798C62.0333 87.0052 59.6792 88.0749 59.6792 88.0749C59.5773 87.5796 59.4476 87.0897 59.2908 86.6074C59.0345 85.9004 58.6888 85.2251 58.2612 84.5963C57.9613 85.2151 57.5295 85.7688 56.9929 86.2229C56.1973 86.8196 52.2287 86.8991 50.717 86.0196C49.2054 85.14 48.5081 83.1377 48.5081 83.1377C48.5081 83.1377 50.0337 83.6062 50.3801 82.5764C50.7264 81.5465 50.4643 80.1852 48.3677 77.2017C46.271 74.2182 46.0745 64.3306 49.8933 59.2476C53.7122 54.1646 63.4653 52.6176 65.7773 52.6795C66.5444 52.6672 67.2882 52.9283 67.8606 53.4108C68.4331 53.8933 68.792 54.5617 68.866 55.2829Z" fill="#263238" stroke="#263238" stroke-linecap="round" stroke-linejoin="round"/>
</svg>
