<svg width="35" height="29" viewBox="0 0 35 29" fill="none" xmlns="http://www.w3.org/2000/svg">
<path d="M34.3327 4.02014C33.0834 4.58906 31.7384 4.97379 30.3275 5.14569C31.7683 4.26163 32.8739 2.85981 33.3948 1.18991C32.0457 2.00849 30.555 2.604 28.9624 2.92325C27.6932 1.53371 25.8792 0.666016 23.8716 0.666016C20.022 0.666016 16.8988 3.86871 16.8988 7.81835C16.8988 8.37908 16.9587 8.92344 17.0784 9.44733C11.2811 9.14855 6.14231 6.30398 2.69984 1.97165C2.09915 3.03171 1.7559 4.26163 1.7559 5.57135C1.7559 8.05165 2.98721 10.2414 4.85912 11.5245C3.71761 11.4897 2.63997 11.1643 1.69802 10.6322V10.7202C1.69802 14.1869 4.10277 17.0785 7.29579 17.7334C6.71107 17.9012 6.09442 17.9851 5.45781 17.9851C5.00879 17.9851 4.56975 17.9421 4.14468 17.8582C5.03274 20.6987 7.60711 22.7677 10.6604 22.8229C8.27366 24.7425 5.26423 25.8864 1.99737 25.8864C1.4346 25.8864 0.877817 25.8537 0.333008 25.7882C3.42026 27.8142 7.08825 28.9991 11.0256 28.9991C23.8576 28.9991 30.8723 18.1018 30.8723 8.64921C30.8723 8.33815 30.8663 8.02709 30.8543 7.72217C32.2173 6.71327 33.4007 5.45471 34.3327 4.02014Z" fill="#B7B7B7"/>
</svg>
