<svg width="35" height="25" viewBox="0 0 35 25" fill="none" xmlns="http://www.w3.org/2000/svg">
<path fill-rule="evenodd" clip-rule="evenodd" d="M32.9733 2.46259C33.9922 3.50159 34.3247 5.861 34.3247 5.861C34.3247 5.861 34.6647 8.63237 34.6647 11.4027V14.0007C34.6647 16.7721 34.3247 19.5424 34.3247 19.5424C34.3247 19.5424 33.9922 21.9018 32.9733 22.9408C31.8083 24.1699 30.5166 24.2969 29.7865 24.3687C29.7062 24.3766 29.6327 24.3838 29.5669 24.3917C24.8091 24.7384 17.6649 24.7491 17.6649 24.7491C17.6649 24.7491 8.82497 24.6678 6.10499 24.4046C5.97612 24.3803 5.8199 24.3615 5.64299 24.3401C4.78141 24.236 3.42912 24.0727 2.35546 22.9408C1.33653 21.9018 1.00504 19.5424 1.00504 19.5424C1.00504 19.5424 0.665039 16.7721 0.665039 14.0007V11.4027C0.665039 8.63237 1.00504 5.861 1.00504 5.861C1.00504 5.861 1.33653 3.50159 2.35546 2.46259C3.52299 1.23175 4.81592 1.10613 5.54609 1.03519C5.62526 1.0275 5.69781 1.02045 5.76287 1.0127C10.5207 0.666016 17.6575 0.666016 17.6575 0.666016H17.6723C17.6723 0.666016 24.8091 0.666016 29.5669 1.0127C29.632 1.02046 29.7046 1.02752 29.7838 1.03523C30.5134 1.10618 31.8069 1.23195 32.9733 2.46259ZM14.1533 7.52832L14.1544 17.1489L23.3396 12.3552L14.1533 7.52832Z" fill="#B7B7B7"/>
</svg>
